G04 EAGLE Gerber RS-274X export*
G75*
%MOMM*%
%FSLAX34Y34*%
%LPD*%
%INSolder side*%
%IPPOS*%
%AMOC8*
5,1,8,0,0,1.08239X$1,22.5*%
G01*
%ADD10C,1.524000*%
%ADD11C,1.320800*%
%ADD12P,2.336880X8X22.500000*%
%ADD13P,1.429621X8X112.500000*%
%ADD14C,1.422400*%
%ADD15P,1.539592X8X202.500000*%
%ADD16C,0.609600*%
%ADD17C,1.500000*%
%ADD18C,0.152400*%
%ADD19C,0.756400*%
%ADD20C,0.254000*%


D10*
X469900Y30480D02*
X469900Y45720D01*
X495300Y45720D02*
X495300Y30480D01*
X520700Y30480D02*
X520700Y45720D01*
D11*
X88900Y44196D02*
X88900Y57404D01*
X114300Y57404D02*
X114300Y44196D01*
X241300Y44196D02*
X241300Y57404D01*
X266700Y57404D02*
X266700Y44196D01*
X139700Y44196D02*
X139700Y57404D01*
X165100Y57404D02*
X165100Y44196D01*
X215900Y44196D02*
X215900Y57404D01*
X190500Y57404D02*
X190500Y44196D01*
X266700Y120396D02*
X266700Y133604D01*
X241300Y133604D02*
X241300Y120396D01*
X215900Y120396D02*
X215900Y133604D01*
X190500Y133604D02*
X190500Y120396D01*
X165100Y120396D02*
X165100Y133604D01*
X139700Y133604D02*
X139700Y120396D01*
X114300Y120396D02*
X114300Y133604D01*
X88900Y133604D02*
X88900Y120396D01*
D10*
X520700Y109220D02*
X520700Y93980D01*
X546100Y93980D02*
X546100Y109220D01*
D12*
X558800Y177800D03*
X482600Y165100D03*
X546100Y330200D03*
X457200Y228600D03*
D13*
X406400Y50800D03*
X406400Y101600D03*
D14*
X558800Y292100D03*
D15*
X558800Y266700D03*
X533400Y292100D03*
X533400Y266700D03*
X508000Y292100D03*
X508000Y266700D03*
X482600Y292100D03*
X482600Y266700D03*
X457200Y292100D03*
X457200Y266700D03*
X431800Y292100D03*
X431800Y266700D03*
X406400Y292100D03*
X406400Y266700D03*
X381000Y292100D03*
X381000Y266700D03*
X355600Y292100D03*
X355600Y266700D03*
X330200Y292100D03*
X330200Y266700D03*
X304800Y292100D03*
X304800Y266700D03*
X279400Y292100D03*
X279400Y266700D03*
X254000Y292100D03*
X254000Y266700D03*
X228600Y292100D03*
X228600Y266700D03*
X203200Y292100D03*
X203200Y266700D03*
X177800Y292100D03*
X177800Y266700D03*
X152400Y292100D03*
X152400Y266700D03*
X127000Y292100D03*
X127000Y266700D03*
X101600Y292100D03*
X101600Y266700D03*
X76200Y292100D03*
X76200Y266700D03*
D10*
X355600Y172720D02*
X355600Y157480D01*
X381000Y157480D02*
X381000Y172720D01*
X406400Y172720D02*
X406400Y157480D01*
D12*
X101600Y228600D03*
D16*
X495300Y50800D02*
X495300Y38100D01*
X495300Y50800D02*
X463550Y82550D01*
X431800Y50800D02*
X406400Y50800D01*
X431800Y50800D02*
X463550Y82550D01*
X88900Y165100D02*
X88900Y190500D01*
X88900Y165100D02*
X88900Y127000D01*
X355600Y152400D02*
X355600Y165100D01*
X355600Y152400D02*
X406400Y101600D01*
X520700Y101600D01*
X355600Y165100D02*
X114300Y165100D01*
X88900Y165100D01*
D17*
X114300Y190500D03*
D16*
X88900Y190500D01*
X114300Y165100D02*
X114300Y127000D01*
D17*
X508000Y203200D03*
D16*
X368300Y203200D01*
D17*
X368300Y203200D03*
X292100Y152400D03*
D16*
X165100Y152400D01*
X165100Y127000D01*
X190500Y127000D02*
X158750Y95250D01*
X69850Y95250D01*
X50800Y114300D01*
X50800Y323850D01*
X298450Y323850D01*
X330200Y292100D01*
D17*
X304800Y342900D03*
D16*
X406400Y342900D01*
X406400Y354078D01*
X584200Y354078D01*
X584200Y152400D01*
D18*
X489882Y139319D02*
X489501Y139700D01*
D16*
X444500Y139700D01*
X571119Y139319D02*
X584200Y152400D01*
X571119Y139319D02*
X489882Y139319D01*
X444500Y139700D02*
X444500Y165100D01*
D17*
X444500Y165100D03*
X406400Y228600D03*
D16*
X215900Y228600D01*
D17*
X215900Y215900D03*
D16*
X215900Y228600D01*
X558800Y292100D02*
X558800Y330200D01*
X546100Y330200D01*
X533400Y266700D02*
X533400Y177800D01*
X558800Y177800D01*
X457200Y241300D02*
X457200Y266700D01*
X457200Y241300D02*
X457200Y228600D01*
X88900Y50800D02*
X88900Y25400D01*
X330200Y25400D01*
X330200Y101600D01*
D17*
X330200Y101600D03*
X317500Y190500D03*
D16*
X177800Y190500D01*
D17*
X177800Y190500D03*
D19*
X368300Y50800D03*
D16*
X368300Y25400D01*
X431800Y25400D01*
D17*
X431800Y25400D03*
D16*
X76200Y228600D02*
X76200Y266700D01*
X76200Y228600D02*
X101600Y228600D01*
D20*
X0Y0D02*
X622100Y0D01*
X622100Y377700D01*
X0Y377700D01*
X0Y0D01*
M02*
