G04 EAGLE Gerber RS-274X export*
G75*
%MOMM*%
%FSLAX34Y34*%
%LPD*%
%INSilk screen SOL*%
%IPPOS*%
%AMOC8*
5,1,8,0,0,1.08239X$1,22.5*%
G01*
%ADD10C,0.000000*%
%ADD11C,0.152400*%
%ADD12C,0.127000*%
%ADD13C,0.254000*%


D10*
X0Y0D02*
X622100Y0D01*
X622100Y377700D01*
X0Y377700D01*
X0Y0D01*
D11*
X571500Y255270D02*
X571500Y303530D01*
X571498Y303688D01*
X571492Y303847D01*
X571482Y304005D01*
X571468Y304162D01*
X571451Y304320D01*
X571429Y304476D01*
X571404Y304633D01*
X571374Y304788D01*
X571341Y304943D01*
X571304Y305097D01*
X571263Y305250D01*
X571218Y305402D01*
X571169Y305552D01*
X571117Y305702D01*
X571061Y305850D01*
X571001Y305997D01*
X570938Y306142D01*
X570871Y306285D01*
X570801Y306427D01*
X570727Y306567D01*
X570649Y306705D01*
X570568Y306841D01*
X570484Y306975D01*
X570397Y307107D01*
X570306Y307237D01*
X570212Y307364D01*
X570115Y307489D01*
X570014Y307612D01*
X569911Y307732D01*
X569805Y307849D01*
X569696Y307964D01*
X569584Y308076D01*
X569469Y308185D01*
X569352Y308291D01*
X569232Y308394D01*
X569109Y308495D01*
X568984Y308592D01*
X568857Y308686D01*
X568727Y308777D01*
X568595Y308864D01*
X568461Y308948D01*
X568325Y309029D01*
X568187Y309107D01*
X568047Y309181D01*
X567905Y309251D01*
X567762Y309318D01*
X567617Y309381D01*
X567470Y309441D01*
X567322Y309497D01*
X567172Y309549D01*
X567022Y309598D01*
X566870Y309643D01*
X566717Y309684D01*
X566563Y309721D01*
X566408Y309754D01*
X566253Y309784D01*
X566096Y309809D01*
X565940Y309831D01*
X565782Y309848D01*
X565625Y309862D01*
X565467Y309872D01*
X565308Y309878D01*
X565150Y309880D01*
X571500Y255270D02*
X571498Y255112D01*
X571492Y254953D01*
X571482Y254795D01*
X571468Y254638D01*
X571451Y254480D01*
X571429Y254324D01*
X571404Y254167D01*
X571374Y254012D01*
X571341Y253857D01*
X571304Y253703D01*
X571263Y253550D01*
X571218Y253398D01*
X571169Y253248D01*
X571117Y253098D01*
X571061Y252950D01*
X571001Y252803D01*
X570938Y252658D01*
X570871Y252515D01*
X570801Y252373D01*
X570727Y252233D01*
X570649Y252095D01*
X570568Y251959D01*
X570484Y251825D01*
X570397Y251693D01*
X570306Y251563D01*
X570212Y251436D01*
X570115Y251311D01*
X570014Y251188D01*
X569911Y251068D01*
X569805Y250951D01*
X569696Y250836D01*
X569584Y250724D01*
X569469Y250615D01*
X569352Y250509D01*
X569232Y250406D01*
X569109Y250305D01*
X568984Y250208D01*
X568857Y250114D01*
X568727Y250023D01*
X568595Y249936D01*
X568461Y249852D01*
X568325Y249771D01*
X568187Y249693D01*
X568047Y249619D01*
X567905Y249549D01*
X567762Y249482D01*
X567617Y249419D01*
X567470Y249359D01*
X567322Y249303D01*
X567172Y249251D01*
X567022Y249202D01*
X566870Y249157D01*
X566717Y249116D01*
X566563Y249079D01*
X566408Y249046D01*
X566253Y249016D01*
X566096Y248991D01*
X565940Y248969D01*
X565782Y248952D01*
X565625Y248938D01*
X565467Y248928D01*
X565308Y248922D01*
X565150Y248920D01*
X565150Y309880D02*
X69850Y309880D01*
X63500Y303530D02*
X63500Y255270D01*
X69850Y248920D02*
X565150Y248920D01*
X69850Y309880D02*
X69692Y309878D01*
X69533Y309872D01*
X69375Y309862D01*
X69218Y309848D01*
X69060Y309831D01*
X68904Y309809D01*
X68747Y309784D01*
X68592Y309754D01*
X68437Y309721D01*
X68283Y309684D01*
X68130Y309643D01*
X67978Y309598D01*
X67828Y309549D01*
X67678Y309497D01*
X67530Y309441D01*
X67383Y309381D01*
X67238Y309318D01*
X67095Y309251D01*
X66953Y309181D01*
X66813Y309107D01*
X66675Y309029D01*
X66539Y308948D01*
X66405Y308864D01*
X66273Y308777D01*
X66143Y308686D01*
X66016Y308592D01*
X65891Y308495D01*
X65768Y308394D01*
X65648Y308291D01*
X65531Y308185D01*
X65416Y308076D01*
X65304Y307964D01*
X65195Y307849D01*
X65089Y307732D01*
X64986Y307612D01*
X64885Y307489D01*
X64788Y307364D01*
X64694Y307237D01*
X64603Y307107D01*
X64516Y306975D01*
X64432Y306841D01*
X64351Y306705D01*
X64273Y306567D01*
X64199Y306427D01*
X64129Y306285D01*
X64062Y306142D01*
X63999Y305997D01*
X63939Y305850D01*
X63883Y305702D01*
X63831Y305552D01*
X63782Y305402D01*
X63737Y305250D01*
X63696Y305097D01*
X63659Y304943D01*
X63626Y304788D01*
X63596Y304633D01*
X63571Y304476D01*
X63549Y304320D01*
X63532Y304162D01*
X63518Y304005D01*
X63508Y303847D01*
X63502Y303688D01*
X63500Y303530D01*
X63500Y255270D02*
X63502Y255112D01*
X63508Y254953D01*
X63518Y254795D01*
X63532Y254638D01*
X63549Y254480D01*
X63571Y254324D01*
X63596Y254167D01*
X63626Y254012D01*
X63659Y253857D01*
X63696Y253703D01*
X63737Y253550D01*
X63782Y253398D01*
X63831Y253248D01*
X63883Y253098D01*
X63939Y252950D01*
X63999Y252803D01*
X64062Y252658D01*
X64129Y252515D01*
X64199Y252373D01*
X64273Y252233D01*
X64351Y252095D01*
X64432Y251959D01*
X64516Y251825D01*
X64603Y251693D01*
X64694Y251563D01*
X64788Y251436D01*
X64885Y251311D01*
X64986Y251188D01*
X65089Y251068D01*
X65195Y250951D01*
X65304Y250836D01*
X65416Y250724D01*
X65531Y250615D01*
X65648Y250509D01*
X65768Y250406D01*
X65891Y250305D01*
X66016Y250208D01*
X66143Y250114D01*
X66273Y250023D01*
X66405Y249936D01*
X66539Y249852D01*
X66675Y249771D01*
X66813Y249693D01*
X66953Y249619D01*
X67095Y249549D01*
X67238Y249482D01*
X67383Y249419D01*
X67530Y249359D01*
X67678Y249303D01*
X67828Y249251D01*
X67978Y249202D01*
X68130Y249157D01*
X68283Y249116D01*
X68437Y249079D01*
X68592Y249046D01*
X68747Y249016D01*
X68904Y248991D01*
X69060Y248969D01*
X69218Y248952D01*
X69375Y248938D01*
X69533Y248928D01*
X69692Y248922D01*
X69850Y248920D01*
D12*
X558800Y325755D02*
X561975Y323215D01*
X558800Y325755D02*
X558800Y314325D01*
X561975Y314325D02*
X555625Y314325D01*
X84455Y235585D02*
X81915Y244475D01*
X84455Y235585D02*
X78105Y235585D01*
X80010Y238125D02*
X80010Y233045D01*
X73025Y238760D02*
X73022Y238985D01*
X73014Y239210D01*
X73001Y239434D01*
X72982Y239658D01*
X72958Y239882D01*
X72929Y240105D01*
X72894Y240327D01*
X72854Y240548D01*
X72808Y240768D01*
X72758Y240987D01*
X72702Y241205D01*
X72641Y241422D01*
X72575Y241637D01*
X72504Y241850D01*
X72427Y242061D01*
X72346Y242271D01*
X72260Y242479D01*
X72169Y242684D01*
X72073Y242887D01*
X72073Y242888D02*
X72041Y242976D01*
X72005Y243063D01*
X71966Y243149D01*
X71923Y243233D01*
X71877Y243315D01*
X71828Y243395D01*
X71776Y243473D01*
X71720Y243549D01*
X71662Y243623D01*
X71600Y243694D01*
X71536Y243763D01*
X71469Y243829D01*
X71400Y243892D01*
X71328Y243953D01*
X71254Y244011D01*
X71177Y244065D01*
X71099Y244117D01*
X71018Y244165D01*
X70936Y244210D01*
X70851Y244252D01*
X70765Y244290D01*
X70678Y244325D01*
X70590Y244357D01*
X70500Y244384D01*
X70409Y244409D01*
X70317Y244429D01*
X70225Y244446D01*
X70131Y244459D01*
X70038Y244468D01*
X69944Y244474D01*
X69850Y244476D01*
X69756Y244474D01*
X69662Y244468D01*
X69569Y244459D01*
X69475Y244446D01*
X69383Y244429D01*
X69291Y244409D01*
X69200Y244384D01*
X69110Y244357D01*
X69022Y244325D01*
X68935Y244290D01*
X68849Y244252D01*
X68764Y244210D01*
X68682Y244165D01*
X68601Y244117D01*
X68523Y244065D01*
X68446Y244011D01*
X68372Y243953D01*
X68300Y243892D01*
X68231Y243829D01*
X68164Y243763D01*
X68100Y243694D01*
X68038Y243623D01*
X67980Y243549D01*
X67924Y243473D01*
X67872Y243395D01*
X67823Y243315D01*
X67777Y243233D01*
X67734Y243149D01*
X67695Y243063D01*
X67659Y242976D01*
X67627Y242888D01*
X67627Y242887D02*
X67531Y242684D01*
X67440Y242479D01*
X67354Y242271D01*
X67273Y242061D01*
X67196Y241850D01*
X67125Y241637D01*
X67059Y241422D01*
X66998Y241205D01*
X66942Y240987D01*
X66892Y240768D01*
X66846Y240548D01*
X66806Y240327D01*
X66771Y240105D01*
X66742Y239882D01*
X66718Y239658D01*
X66699Y239434D01*
X66686Y239210D01*
X66678Y238985D01*
X66675Y238760D01*
X73025Y238760D02*
X73022Y238535D01*
X73014Y238310D01*
X73001Y238086D01*
X72982Y237862D01*
X72958Y237638D01*
X72929Y237415D01*
X72894Y237193D01*
X72854Y236972D01*
X72808Y236752D01*
X72758Y236533D01*
X72702Y236315D01*
X72641Y236098D01*
X72575Y235883D01*
X72504Y235670D01*
X72427Y235459D01*
X72346Y235249D01*
X72260Y235041D01*
X72169Y234836D01*
X72073Y234633D01*
X72041Y234545D01*
X72005Y234458D01*
X71966Y234372D01*
X71923Y234288D01*
X71877Y234206D01*
X71828Y234126D01*
X71776Y234048D01*
X71720Y233972D01*
X71662Y233898D01*
X71600Y233827D01*
X71536Y233758D01*
X71469Y233692D01*
X71400Y233629D01*
X71328Y233568D01*
X71254Y233510D01*
X71177Y233456D01*
X71099Y233404D01*
X71018Y233356D01*
X70936Y233311D01*
X70851Y233269D01*
X70765Y233231D01*
X70678Y233196D01*
X70590Y233164D01*
X70500Y233137D01*
X70409Y233112D01*
X70317Y233092D01*
X70225Y233075D01*
X70131Y233062D01*
X70038Y233053D01*
X69944Y233047D01*
X69850Y233045D01*
X67627Y234633D02*
X67531Y234836D01*
X67440Y235041D01*
X67354Y235249D01*
X67273Y235459D01*
X67196Y235670D01*
X67125Y235883D01*
X67059Y236098D01*
X66998Y236315D01*
X66942Y236533D01*
X66892Y236752D01*
X66846Y236972D01*
X66806Y237193D01*
X66771Y237415D01*
X66742Y237638D01*
X66718Y237862D01*
X66699Y238086D01*
X66686Y238310D01*
X66678Y238535D01*
X66675Y238760D01*
X67627Y234633D02*
X67659Y234545D01*
X67695Y234458D01*
X67734Y234372D01*
X67777Y234288D01*
X67823Y234206D01*
X67872Y234126D01*
X67924Y234048D01*
X67980Y233972D01*
X68038Y233898D01*
X68100Y233827D01*
X68164Y233758D01*
X68231Y233692D01*
X68300Y233629D01*
X68372Y233568D01*
X68446Y233510D01*
X68523Y233456D01*
X68601Y233404D01*
X68682Y233356D01*
X68764Y233311D01*
X68849Y233269D01*
X68935Y233231D01*
X69022Y233196D01*
X69110Y233164D01*
X69200Y233137D01*
X69291Y233112D01*
X69383Y233092D01*
X69475Y233075D01*
X69569Y233062D01*
X69662Y233053D01*
X69756Y233047D01*
X69850Y233045D01*
X72390Y235585D02*
X67310Y241935D01*
X520065Y314325D02*
X520065Y325755D01*
X516890Y325755D01*
X516779Y325753D01*
X516669Y325747D01*
X516558Y325738D01*
X516448Y325724D01*
X516339Y325707D01*
X516230Y325686D01*
X516122Y325661D01*
X516015Y325632D01*
X515909Y325600D01*
X515804Y325564D01*
X515701Y325524D01*
X515599Y325481D01*
X515498Y325434D01*
X515399Y325383D01*
X515303Y325330D01*
X515208Y325273D01*
X515115Y325212D01*
X515024Y325149D01*
X514935Y325082D01*
X514849Y325012D01*
X514766Y324939D01*
X514684Y324864D01*
X514606Y324786D01*
X514531Y324704D01*
X514458Y324621D01*
X514388Y324535D01*
X514321Y324446D01*
X514258Y324355D01*
X514197Y324262D01*
X514140Y324168D01*
X514087Y324071D01*
X514036Y323972D01*
X513989Y323871D01*
X513946Y323769D01*
X513906Y323666D01*
X513870Y323561D01*
X513838Y323455D01*
X513809Y323348D01*
X513784Y323240D01*
X513763Y323131D01*
X513746Y323022D01*
X513732Y322912D01*
X513723Y322801D01*
X513717Y322691D01*
X513715Y322580D01*
X513717Y322469D01*
X513723Y322359D01*
X513732Y322248D01*
X513746Y322138D01*
X513763Y322029D01*
X513784Y321920D01*
X513809Y321812D01*
X513838Y321705D01*
X513870Y321599D01*
X513906Y321494D01*
X513946Y321391D01*
X513989Y321289D01*
X514036Y321188D01*
X514087Y321089D01*
X514140Y320993D01*
X514197Y320898D01*
X514258Y320805D01*
X514321Y320714D01*
X514388Y320625D01*
X514458Y320539D01*
X514531Y320456D01*
X514606Y320374D01*
X514684Y320296D01*
X514766Y320221D01*
X514849Y320148D01*
X514935Y320078D01*
X515024Y320011D01*
X515115Y319948D01*
X515208Y319887D01*
X515303Y319830D01*
X515399Y319777D01*
X515498Y319726D01*
X515599Y319679D01*
X515701Y319636D01*
X515804Y319596D01*
X515909Y319560D01*
X516015Y319528D01*
X516122Y319499D01*
X516230Y319474D01*
X516339Y319453D01*
X516448Y319436D01*
X516558Y319422D01*
X516669Y319413D01*
X516779Y319407D01*
X516890Y319405D01*
X520065Y319405D01*
X516255Y319405D02*
X513715Y314325D01*
X508146Y314325D02*
X508146Y325755D01*
X504971Y325755D01*
X504860Y325753D01*
X504750Y325747D01*
X504639Y325738D01*
X504529Y325724D01*
X504420Y325707D01*
X504311Y325686D01*
X504203Y325661D01*
X504096Y325632D01*
X503990Y325600D01*
X503885Y325564D01*
X503782Y325524D01*
X503680Y325481D01*
X503579Y325434D01*
X503480Y325383D01*
X503384Y325330D01*
X503289Y325273D01*
X503196Y325212D01*
X503105Y325149D01*
X503016Y325082D01*
X502930Y325012D01*
X502847Y324939D01*
X502765Y324864D01*
X502687Y324786D01*
X502612Y324704D01*
X502539Y324621D01*
X502469Y324535D01*
X502402Y324446D01*
X502339Y324355D01*
X502278Y324262D01*
X502221Y324168D01*
X502168Y324071D01*
X502117Y323972D01*
X502070Y323871D01*
X502027Y323769D01*
X501987Y323666D01*
X501951Y323561D01*
X501919Y323455D01*
X501890Y323348D01*
X501865Y323240D01*
X501844Y323131D01*
X501827Y323022D01*
X501813Y322912D01*
X501804Y322801D01*
X501798Y322691D01*
X501796Y322580D01*
X501798Y322469D01*
X501804Y322359D01*
X501813Y322248D01*
X501827Y322138D01*
X501844Y322029D01*
X501865Y321920D01*
X501890Y321812D01*
X501919Y321705D01*
X501951Y321599D01*
X501987Y321494D01*
X502027Y321391D01*
X502070Y321289D01*
X502117Y321188D01*
X502168Y321089D01*
X502221Y320993D01*
X502278Y320898D01*
X502339Y320805D01*
X502402Y320714D01*
X502469Y320625D01*
X502539Y320539D01*
X502612Y320456D01*
X502687Y320374D01*
X502765Y320296D01*
X502847Y320221D01*
X502930Y320148D01*
X503016Y320078D01*
X503105Y320011D01*
X503196Y319948D01*
X503289Y319887D01*
X503384Y319830D01*
X503480Y319777D01*
X503579Y319726D01*
X503680Y319679D01*
X503782Y319636D01*
X503885Y319596D01*
X503990Y319560D01*
X504096Y319528D01*
X504203Y319499D01*
X504311Y319474D01*
X504420Y319453D01*
X504529Y319436D01*
X504639Y319422D01*
X504750Y319413D01*
X504860Y319407D01*
X504971Y319405D01*
X508146Y319405D01*
X496399Y314325D02*
X496399Y325755D01*
X497669Y314325D02*
X495129Y314325D01*
X495129Y325755D02*
X497669Y325755D01*
D13*
X0Y0D02*
X622100Y0D01*
X622100Y377700D01*
X0Y377700D01*
X0Y0D01*
M02*
