G04 EAGLE Gerber RS-274X export*
G75*
%MOMM*%
%FSLAX34Y34*%
%LPD*%
%INSolder stop mask CMP*%
%IPNEG*%
%AMOC8*
5,1,8,0,0,1.08239X$1,22.5*%
G01*
%ADD10C,1.727200*%
%ADD11C,1.524000*%
%ADD12P,2.556822X8X22.500000*%
%ADD13P,1.649562X8X112.500000*%
%ADD14C,1.625600*%
%ADD15P,1.759533X8X202.500000*%
%ADD16C,1.703200*%
%ADD17C,0.959600*%
%ADD18C,0.254000*%


D10*
X469900Y30480D02*
X469900Y45720D01*
X495300Y45720D02*
X495300Y30480D01*
X520700Y30480D02*
X520700Y45720D01*
D11*
X88900Y44196D02*
X88900Y57404D01*
X114300Y57404D02*
X114300Y44196D01*
X241300Y44196D02*
X241300Y57404D01*
X266700Y57404D02*
X266700Y44196D01*
X139700Y44196D02*
X139700Y57404D01*
X165100Y57404D02*
X165100Y44196D01*
X215900Y44196D02*
X215900Y57404D01*
X190500Y57404D02*
X190500Y44196D01*
X266700Y120396D02*
X266700Y133604D01*
X241300Y133604D02*
X241300Y120396D01*
X215900Y120396D02*
X215900Y133604D01*
X190500Y133604D02*
X190500Y120396D01*
X165100Y120396D02*
X165100Y133604D01*
X139700Y133604D02*
X139700Y120396D01*
X114300Y120396D02*
X114300Y133604D01*
X88900Y133604D02*
X88900Y120396D01*
D10*
X520700Y109220D02*
X520700Y93980D01*
X546100Y93980D02*
X546100Y109220D01*
D12*
X558800Y177800D03*
X482600Y165100D03*
X546100Y330200D03*
X457200Y228600D03*
D13*
X406400Y50800D03*
X406400Y101600D03*
D14*
X558800Y292100D03*
D15*
X558800Y266700D03*
X533400Y292100D03*
X533400Y266700D03*
X508000Y292100D03*
X508000Y266700D03*
X482600Y292100D03*
X482600Y266700D03*
X457200Y292100D03*
X457200Y266700D03*
X431800Y292100D03*
X431800Y266700D03*
X406400Y292100D03*
X406400Y266700D03*
X381000Y292100D03*
X381000Y266700D03*
X355600Y292100D03*
X355600Y266700D03*
X330200Y292100D03*
X330200Y266700D03*
X304800Y292100D03*
X304800Y266700D03*
X279400Y292100D03*
X279400Y266700D03*
X254000Y292100D03*
X254000Y266700D03*
X228600Y292100D03*
X228600Y266700D03*
X203200Y292100D03*
X203200Y266700D03*
X177800Y292100D03*
X177800Y266700D03*
X152400Y292100D03*
X152400Y266700D03*
X127000Y292100D03*
X127000Y266700D03*
X101600Y292100D03*
X101600Y266700D03*
X76200Y292100D03*
X76200Y266700D03*
D10*
X355600Y172720D02*
X355600Y157480D01*
X381000Y157480D02*
X381000Y172720D01*
X406400Y172720D02*
X406400Y157480D01*
D12*
X101600Y228600D03*
D16*
X114300Y190500D03*
X508000Y203200D03*
X368300Y203200D03*
X292100Y152400D03*
X304800Y342900D03*
X444500Y165100D03*
X406400Y228600D03*
X215900Y215900D03*
X330200Y101600D03*
X317500Y190500D03*
X177800Y190500D03*
D17*
X368300Y50800D03*
D16*
X431800Y25400D03*
D18*
X0Y0D02*
X622100Y0D01*
X622100Y377700D01*
X0Y377700D01*
X0Y0D01*
M02*
