M48
;GenerationSoftware,Autodesk,EAGLE,9.4.0*%
;CreationDate,2019-05-06T15:53:22Z*%
FMAT,2
ICI,OFF
METRIC,TZ,000.000
T6C0.350
T5C0.813
T4C0.914
T3C1.000
T2C1.016
T1C1.118
%
G90
M71
T1
X48260Y16510
X54610Y33020
X45720Y22860
X10160Y22860
X55880Y17780
T2
X46990Y3810
X49530Y3810
X52070Y3810
X35560Y16510
X40640Y16510
X38100Y16510
X52070Y10160
X54610Y10160
T3
X11430Y19050
X50800Y20320
X36830Y20320
X29210Y15240
X30480Y34290
X44450Y16510
X40640Y22860
X21590Y21590
X33020Y10160
X31750Y19050
X17780Y19050
X43180Y2540
T4
X22860Y29210
X22860Y26670
X20320Y29210
X20320Y26670
X17780Y29210
X17780Y26670
X15240Y29210
X27940Y26670
X12700Y29210
X12700Y26670
X10160Y29210
X10160Y26670
X7620Y29210
X7620Y26670
X15240Y26670
X55880Y29210
X55880Y26670
X53340Y29210
X53340Y26670
X50800Y29210
X50800Y26670
X48260Y29210
X48260Y26670
X45720Y29210
X45720Y26670
X43180Y29210
X43180Y26670
X40640Y29210
X40640Y26670
X38100Y29210
X38100Y26670
X35560Y29210
X35560Y26670
X33020Y29210
X33020Y26670
X30480Y29210
X30480Y26670
X27940Y29210
X25400Y29210
X25400Y26670
T5
X8890Y5080
X11430Y5080
X24130Y5080
X26670Y5080
X13970Y5080
X16510Y5080
X21590Y5080
X19050Y5080
X26670Y12700
X24130Y12700
X21590Y12700
X19050Y12700
X16510Y12700
X13970Y12700
X40640Y5080
X8890Y12700
X11430Y12700
X40640Y10160
T6
X36830Y5080
M30