M48
;GenerationSoftware,Autodesk,EAGLE,9.3.2*%
;CreationDate,2019-04-12T23:28:15Z*%
FMAT,2
ICI,OFF
METRIC,TZ,000.000
T4C0.350
T3C0.813
T2C0.914
T1C1.016
%
G90
M71
T1
X71120Y8890
X71120Y11430
X71120Y13970
X86360Y11430
X88900Y11430
T2
X52070Y12700
X52070Y10160
X49530Y12700
X49530Y10160
X46990Y12700
X46990Y10160
X44450Y12700
X41910Y12700
X44450Y10160
X41910Y10160
X39370Y12700
X39370Y10160
X36830Y12700
X36830Y10160
X34290Y12700
X34290Y10160
X31750Y12700
X31750Y10160
X29210Y12700
X29210Y10160
X26670Y12700
X26670Y10160
X24130Y12700
X24130Y10160
X21590Y12700
X21590Y10160
X19050Y12700
X57150Y10160
X19050Y10160
X16510Y10160
X13970Y12700
X13970Y10160
X11430Y12700
X11430Y10160
X59690Y12700
X59690Y10160
X57150Y12700
X16510Y12700
X54610Y12700
X54610Y10160
T3
X82550Y25400
X74930Y40640
X20320Y25400
X74930Y25400
X7620Y34290
X10160Y34290
X12700Y34290
X15240Y34290
X33020Y19050
X46990Y25400
X52070Y25400
X54610Y25400
X60960Y3810
X43180Y21590
X48260Y29210
X82550Y30480
X82550Y35560
X17780Y34290
X80010Y19050
X82550Y40640
X81280Y44450
X24130Y25400
X29210Y19050
X55880Y29210
X55880Y34290
X74930Y22860
X74930Y27940
X74930Y30480
X74930Y33020
X74930Y35560
X74930Y38100
T4
X41275Y40005
X40640Y36195
X32385Y25400
X22860Y15875
X27940Y29210
X33020Y29210
X40005Y31115
X40005Y40005
M30