G04 EAGLE Gerber RS-274X export*
G75*
%MOMM*%
%FSLAX34Y34*%
%LPD*%
%INBottom Copper*%
%IPPOS*%
%AMOC8*
5,1,8,0,0,1.08239X$1,22.5*%
G01*
%ADD10C,1.524000*%
%ADD11P,1.732040X8X22.500000*%
%ADD12P,1.429621X8X112.500000*%
%ADD13C,1.320800*%
%ADD14C,1.422400*%
%ADD15P,1.539592X8X202.500000*%
%ADD16C,0.152400*%
%ADD17C,0.756400*%


D10*
X863600Y106680D02*
X863600Y121920D01*
X889000Y121920D02*
X889000Y106680D01*
D11*
X825500Y254000D03*
X330200Y190500D03*
X469900Y254000D03*
X520700Y254000D03*
X546100Y254000D03*
X609600Y38100D03*
X431800Y215900D03*
X482600Y292100D03*
X825500Y304800D03*
X825500Y355600D03*
X203200Y254000D03*
X800100Y190500D03*
X825500Y406400D03*
X812800Y444500D03*
X241300Y254000D03*
X292100Y190500D03*
D12*
X558800Y292100D03*
X558800Y342900D03*
D10*
X703580Y88900D02*
X718820Y88900D01*
X718820Y114300D02*
X703580Y114300D01*
X703580Y139700D02*
X718820Y139700D01*
D13*
X742696Y228600D02*
X755904Y228600D01*
X755904Y254000D02*
X742696Y254000D01*
X742696Y279400D02*
X755904Y279400D01*
X755904Y304800D02*
X742696Y304800D01*
X742696Y330200D02*
X755904Y330200D01*
X755904Y355600D02*
X742696Y355600D01*
X742696Y381000D02*
X755904Y381000D01*
X755904Y406400D02*
X742696Y406400D01*
D14*
X596900Y127000D03*
D15*
X596900Y101600D03*
X571500Y127000D03*
X571500Y101600D03*
X546100Y127000D03*
X546100Y101600D03*
X520700Y127000D03*
X520700Y101600D03*
X495300Y127000D03*
X495300Y101600D03*
X469900Y127000D03*
X469900Y101600D03*
X444500Y127000D03*
X444500Y101600D03*
X419100Y127000D03*
X419100Y101600D03*
X393700Y127000D03*
X393700Y101600D03*
X368300Y127000D03*
X368300Y101600D03*
X342900Y127000D03*
X342900Y101600D03*
X317500Y127000D03*
X317500Y101600D03*
X292100Y127000D03*
X292100Y101600D03*
X266700Y127000D03*
X266700Y101600D03*
X241300Y127000D03*
X241300Y101600D03*
X215900Y127000D03*
X215900Y101600D03*
X190500Y127000D03*
X190500Y101600D03*
X165100Y127000D03*
X165100Y101600D03*
X139700Y127000D03*
X139700Y101600D03*
X114300Y127000D03*
X114300Y101600D03*
D13*
X76200Y336296D02*
X76200Y349504D01*
X101600Y349504D02*
X101600Y336296D01*
X127000Y336296D02*
X127000Y349504D01*
X152400Y349504D02*
X152400Y336296D01*
X177800Y336296D02*
X177800Y349504D01*
D16*
X400050Y387350D02*
X400050Y400050D01*
X400050Y387350D02*
X254000Y241300D01*
X254000Y76200D01*
X317500Y76200D01*
X317500Y101600D01*
D17*
X400050Y400050D03*
D16*
X412750Y400050D02*
X425450Y387350D01*
X425450Y254000D01*
X508000Y171450D01*
X508000Y95250D01*
X476250Y63500D01*
X342900Y63500D01*
X342900Y101600D01*
D17*
X412750Y400050D03*
D16*
X406400Y361950D02*
X393700Y361950D01*
X381000Y349250D01*
X381000Y234950D01*
X482600Y133350D01*
X482600Y120650D01*
X476250Y114300D01*
X368300Y114300D01*
X368300Y101600D01*
D17*
X406400Y361950D03*
D16*
X558800Y292100D02*
X571500Y279400D01*
X571500Y171450D01*
X533400Y133350D01*
X533400Y114300D01*
X520700Y101600D01*
X730250Y209550D02*
X749300Y228600D01*
X730250Y114300D02*
X730250Y107950D01*
X730250Y114300D02*
X730250Y209550D01*
X730250Y107950D02*
X711200Y88900D01*
X730250Y114300D02*
X863600Y114300D01*
X241300Y457200D02*
X127000Y342900D01*
X241300Y457200D02*
X558800Y457200D01*
X558800Y381000D02*
X558800Y342900D01*
X558800Y381000D02*
X558800Y457200D01*
X622300Y279400D02*
X622300Y127000D01*
X596900Y101600D01*
X622300Y279400D02*
X558800Y342900D01*
X558800Y381000D02*
X730250Y209550D01*
X749300Y254000D02*
X800100Y203200D01*
X800100Y190500D01*
X800100Y304800D02*
X749300Y304800D01*
X800100Y304800D02*
X800100Y279400D01*
X825500Y254000D01*
X825500Y330200D02*
X749300Y330200D01*
X825500Y330200D02*
X825500Y304800D01*
X825500Y355600D02*
X749300Y355600D01*
X749300Y381000D02*
X825500Y381000D01*
X825500Y406400D01*
X812800Y406400D02*
X749300Y406400D01*
X812800Y406400D02*
X812800Y444500D01*
X190500Y25400D02*
X114300Y101600D01*
X190500Y25400D02*
X609600Y25400D01*
X609600Y38100D01*
X196850Y44450D02*
X139700Y101600D01*
X196850Y44450D02*
X558800Y44450D01*
X558800Y139700D01*
X596900Y177800D01*
X596900Y279400D01*
X546100Y330200D01*
X546100Y254000D01*
X190500Y101600D02*
X177800Y114300D01*
X177800Y298450D01*
X317500Y438150D01*
X520700Y438150D01*
X520700Y254000D01*
X228600Y158750D02*
X228600Y114300D01*
X241300Y101600D01*
D17*
X323850Y254000D03*
X228600Y158750D03*
D16*
X527050Y133350D02*
X527050Y215900D01*
X527050Y133350D02*
X520700Y127000D01*
X527050Y215900D02*
X495300Y247650D01*
X495300Y419100D01*
X330200Y419100D01*
X330200Y381000D01*
X203200Y254000D01*
X361950Y234950D02*
X469900Y127000D01*
X361950Y234950D02*
X361950Y292100D01*
X254000Y292100D02*
X254000Y266700D01*
X241300Y254000D01*
X254000Y292100D02*
X279400Y292100D01*
D17*
X279400Y292100D03*
X330200Y292100D03*
D16*
X361950Y292100D01*
X342900Y203200D02*
X419100Y127000D01*
X342900Y203200D02*
X342900Y273050D01*
X304800Y273050D01*
X304800Y203200D01*
X292100Y190500D01*
X330200Y165100D02*
X368300Y127000D01*
X330200Y165100D02*
X330200Y190500D01*
X393700Y304800D02*
X400050Y311150D01*
X393700Y304800D02*
X393700Y254000D01*
X431800Y215900D01*
D17*
X400050Y311150D03*
M02*
