G04 EAGLE Gerber RS-274X export*
G75*
%MOMM*%
%FSLAX34Y34*%
%LPD*%
%INTop Copper*%
%IPPOS*%
%AMOC8*
5,1,8,0,0,1.08239X$1,22.5*%
G01*
%ADD10C,1.524000*%
%ADD11P,1.732040X8X22.500000*%
%ADD12P,1.429621X8X112.500000*%
%ADD13C,1.320800*%
%ADD14C,1.422400*%
%ADD15P,1.539592X8X202.500000*%
%ADD16R,0.600000X2.200000*%
%ADD17C,0.152400*%
%ADD18C,0.756400*%

G36*
X1042998Y10164D02*
X1042998Y10164D01*
X1043017Y10162D01*
X1043119Y10184D01*
X1043221Y10200D01*
X1043238Y10210D01*
X1043258Y10214D01*
X1043347Y10267D01*
X1043438Y10316D01*
X1043452Y10330D01*
X1043469Y10340D01*
X1043536Y10419D01*
X1043608Y10494D01*
X1043616Y10512D01*
X1043629Y10527D01*
X1043668Y10623D01*
X1043711Y10717D01*
X1043713Y10737D01*
X1043721Y10755D01*
X1043739Y10922D01*
X1043739Y481078D01*
X1043736Y481098D01*
X1043738Y481117D01*
X1043716Y481219D01*
X1043700Y481321D01*
X1043690Y481338D01*
X1043686Y481358D01*
X1043633Y481447D01*
X1043584Y481538D01*
X1043570Y481552D01*
X1043560Y481569D01*
X1043481Y481636D01*
X1043406Y481708D01*
X1043388Y481716D01*
X1043373Y481729D01*
X1043277Y481768D01*
X1043183Y481811D01*
X1043163Y481813D01*
X1043145Y481821D01*
X1042978Y481839D01*
X10922Y481839D01*
X10902Y481836D01*
X10883Y481838D01*
X10781Y481816D01*
X10679Y481800D01*
X10662Y481790D01*
X10642Y481786D01*
X10553Y481733D01*
X10462Y481684D01*
X10448Y481670D01*
X10431Y481660D01*
X10364Y481581D01*
X10292Y481506D01*
X10284Y481488D01*
X10271Y481473D01*
X10232Y481377D01*
X10189Y481283D01*
X10187Y481263D01*
X10179Y481245D01*
X10161Y481078D01*
X10161Y10922D01*
X10164Y10902D01*
X10162Y10883D01*
X10184Y10781D01*
X10200Y10679D01*
X10210Y10662D01*
X10214Y10642D01*
X10267Y10553D01*
X10316Y10462D01*
X10330Y10448D01*
X10340Y10431D01*
X10419Y10364D01*
X10494Y10292D01*
X10512Y10284D01*
X10527Y10271D01*
X10623Y10232D01*
X10717Y10189D01*
X10737Y10187D01*
X10755Y10179D01*
X10922Y10161D01*
X1042978Y10161D01*
X1042998Y10164D01*
G37*
%LPC*%
G36*
X555433Y334771D02*
X555433Y334771D01*
X550671Y339533D01*
X550671Y341130D01*
X550657Y341220D01*
X550649Y341311D01*
X550637Y341340D01*
X550632Y341372D01*
X550589Y341453D01*
X550553Y341537D01*
X550527Y341569D01*
X550516Y341590D01*
X550493Y341612D01*
X550448Y341668D01*
X549940Y342176D01*
X488226Y403890D01*
X488152Y403943D01*
X488082Y404003D01*
X488052Y404015D01*
X488026Y404034D01*
X487939Y404061D01*
X487854Y404095D01*
X487813Y404099D01*
X487791Y404106D01*
X487759Y404105D01*
X487687Y404113D01*
X418029Y404113D01*
X417959Y404102D01*
X417887Y404100D01*
X417838Y404082D01*
X417787Y404074D01*
X417723Y404040D01*
X417656Y404015D01*
X417615Y403983D01*
X417569Y403958D01*
X417520Y403906D01*
X417464Y403862D01*
X417436Y403818D01*
X417400Y403780D01*
X417370Y403715D01*
X417331Y403655D01*
X417318Y403604D01*
X417296Y403557D01*
X417288Y403486D01*
X417271Y403416D01*
X417275Y403364D01*
X417269Y403313D01*
X417284Y403242D01*
X417290Y403171D01*
X417310Y403123D01*
X417321Y403072D01*
X417358Y403011D01*
X417386Y402945D01*
X417431Y402889D01*
X417448Y402861D01*
X417465Y402846D01*
X417491Y402814D01*
X418057Y402248D01*
X418057Y397852D01*
X415629Y395424D01*
X415587Y395366D01*
X415538Y395314D01*
X415516Y395267D01*
X415486Y395225D01*
X415464Y395156D01*
X415434Y395091D01*
X415429Y395039D01*
X415413Y394989D01*
X415415Y394918D01*
X415407Y394847D01*
X415418Y394796D01*
X415420Y394744D01*
X415444Y394676D01*
X415459Y394606D01*
X415486Y394561D01*
X415504Y394513D01*
X415549Y394457D01*
X415586Y394395D01*
X415625Y394361D01*
X415658Y394321D01*
X415718Y394282D01*
X415773Y394235D01*
X415821Y394216D01*
X415865Y394188D01*
X415934Y394170D01*
X416001Y394143D01*
X416072Y394135D01*
X416103Y394127D01*
X416126Y394129D01*
X416167Y394125D01*
X416382Y394125D01*
X417275Y393232D01*
X417275Y369968D01*
X416382Y369075D01*
X409118Y369075D01*
X408225Y369968D01*
X408225Y393232D01*
X409118Y394125D01*
X409333Y394125D01*
X409403Y394136D01*
X409475Y394138D01*
X409524Y394156D01*
X409575Y394164D01*
X409639Y394198D01*
X409706Y394223D01*
X409747Y394255D01*
X409793Y394280D01*
X409842Y394332D01*
X409898Y394376D01*
X409926Y394420D01*
X409962Y394458D01*
X409992Y394523D01*
X410031Y394583D01*
X410044Y394634D01*
X410066Y394681D01*
X410074Y394752D01*
X410091Y394822D01*
X410087Y394874D01*
X410093Y394925D01*
X410078Y394996D01*
X410072Y395067D01*
X410052Y395115D01*
X410041Y395166D01*
X410004Y395227D01*
X409976Y395293D01*
X409931Y395349D01*
X409914Y395377D01*
X409897Y395392D01*
X409871Y395424D01*
X407443Y397852D01*
X407443Y402248D01*
X408009Y402814D01*
X408051Y402872D01*
X408100Y402924D01*
X408122Y402971D01*
X408152Y403013D01*
X408174Y403082D01*
X408204Y403147D01*
X408209Y403199D01*
X408225Y403249D01*
X408223Y403320D01*
X408231Y403391D01*
X408220Y403442D01*
X408218Y403494D01*
X408194Y403562D01*
X408179Y403632D01*
X408152Y403677D01*
X408134Y403725D01*
X408089Y403781D01*
X408052Y403843D01*
X408013Y403877D01*
X407980Y403917D01*
X407920Y403956D01*
X407865Y404003D01*
X407817Y404022D01*
X407773Y404050D01*
X407704Y404068D01*
X407637Y404095D01*
X407566Y404103D01*
X407535Y404111D01*
X407512Y404109D01*
X407471Y404113D01*
X405329Y404113D01*
X405259Y404102D01*
X405187Y404100D01*
X405138Y404082D01*
X405087Y404074D01*
X405023Y404040D01*
X404956Y404015D01*
X404915Y403983D01*
X404869Y403958D01*
X404820Y403906D01*
X404764Y403862D01*
X404736Y403818D01*
X404700Y403780D01*
X404670Y403715D01*
X404631Y403655D01*
X404618Y403604D01*
X404596Y403557D01*
X404588Y403486D01*
X404571Y403416D01*
X404575Y403364D01*
X404569Y403313D01*
X404584Y403242D01*
X404590Y403171D01*
X404610Y403123D01*
X404621Y403072D01*
X404658Y403011D01*
X404686Y402945D01*
X404731Y402889D01*
X404748Y402861D01*
X404765Y402846D01*
X404791Y402814D01*
X405357Y402248D01*
X405357Y397852D01*
X402929Y395424D01*
X402887Y395366D01*
X402838Y395314D01*
X402816Y395267D01*
X402786Y395225D01*
X402764Y395156D01*
X402734Y395091D01*
X402729Y395039D01*
X402713Y394989D01*
X402715Y394918D01*
X402707Y394847D01*
X402718Y394796D01*
X402720Y394744D01*
X402744Y394676D01*
X402759Y394606D01*
X402786Y394561D01*
X402804Y394513D01*
X402849Y394457D01*
X402886Y394395D01*
X402925Y394361D01*
X402958Y394321D01*
X403018Y394282D01*
X403073Y394235D01*
X403121Y394216D01*
X403165Y394188D01*
X403234Y394170D01*
X403301Y394143D01*
X403372Y394135D01*
X403403Y394127D01*
X403426Y394129D01*
X403467Y394125D01*
X403682Y394125D01*
X404575Y393232D01*
X404575Y369968D01*
X403682Y369075D01*
X396418Y369075D01*
X395525Y369968D01*
X395525Y393232D01*
X396418Y394125D01*
X396633Y394125D01*
X396703Y394136D01*
X396775Y394138D01*
X396824Y394156D01*
X396875Y394164D01*
X396939Y394198D01*
X397006Y394223D01*
X397047Y394255D01*
X397093Y394280D01*
X397142Y394332D01*
X397198Y394376D01*
X397226Y394420D01*
X397262Y394458D01*
X397292Y394523D01*
X397331Y394583D01*
X397344Y394634D01*
X397366Y394681D01*
X397374Y394752D01*
X397391Y394822D01*
X397387Y394874D01*
X397393Y394925D01*
X397378Y394996D01*
X397372Y395067D01*
X397352Y395115D01*
X397341Y395166D01*
X397304Y395227D01*
X397276Y395293D01*
X397231Y395349D01*
X397214Y395377D01*
X397197Y395392D01*
X397171Y395424D01*
X394743Y397852D01*
X394743Y402248D01*
X395309Y402814D01*
X395351Y402872D01*
X395400Y402924D01*
X395422Y402971D01*
X395452Y403013D01*
X395474Y403082D01*
X395504Y403147D01*
X395509Y403199D01*
X395525Y403249D01*
X395523Y403320D01*
X395531Y403391D01*
X395520Y403442D01*
X395518Y403494D01*
X395494Y403562D01*
X395479Y403632D01*
X395452Y403677D01*
X395434Y403725D01*
X395389Y403781D01*
X395352Y403843D01*
X395313Y403877D01*
X395280Y403917D01*
X395220Y403956D01*
X395165Y404003D01*
X395117Y404022D01*
X395073Y404050D01*
X395004Y404068D01*
X394937Y404095D01*
X394866Y404103D01*
X394835Y404111D01*
X394812Y404109D01*
X394771Y404113D01*
X377698Y404113D01*
X377678Y404110D01*
X377659Y404112D01*
X377557Y404090D01*
X377455Y404074D01*
X377438Y404064D01*
X377418Y404060D01*
X377329Y404007D01*
X377238Y403958D01*
X377224Y403944D01*
X377207Y403934D01*
X377140Y403855D01*
X377068Y403780D01*
X377060Y403762D01*
X377047Y403747D01*
X377008Y403651D01*
X376965Y403557D01*
X376963Y403537D01*
X376955Y403519D01*
X376937Y403352D01*
X376937Y394886D01*
X376940Y394866D01*
X376938Y394847D01*
X376960Y394745D01*
X376976Y394643D01*
X376986Y394626D01*
X376990Y394606D01*
X377043Y394517D01*
X377092Y394426D01*
X377106Y394412D01*
X377116Y394395D01*
X377195Y394328D01*
X377270Y394256D01*
X377288Y394248D01*
X377303Y394235D01*
X377399Y394196D01*
X377493Y394153D01*
X377513Y394151D01*
X377531Y394143D01*
X377698Y394125D01*
X378282Y394125D01*
X379175Y393232D01*
X379175Y369968D01*
X378282Y369075D01*
X371018Y369075D01*
X370125Y369968D01*
X370125Y377952D01*
X370122Y377972D01*
X370124Y377991D01*
X370102Y378093D01*
X370086Y378195D01*
X370076Y378212D01*
X370072Y378232D01*
X370019Y378321D01*
X369970Y378412D01*
X369956Y378426D01*
X369946Y378443D01*
X369867Y378510D01*
X369792Y378582D01*
X369774Y378590D01*
X369759Y378603D01*
X369663Y378642D01*
X369569Y378685D01*
X369549Y378687D01*
X369531Y378695D01*
X369364Y378713D01*
X367236Y378713D01*
X367216Y378710D01*
X367197Y378712D01*
X367095Y378690D01*
X366993Y378674D01*
X366976Y378664D01*
X366956Y378660D01*
X366867Y378607D01*
X366776Y378558D01*
X366762Y378544D01*
X366745Y378534D01*
X366678Y378455D01*
X366606Y378380D01*
X366598Y378362D01*
X366585Y378347D01*
X366546Y378251D01*
X366503Y378157D01*
X366501Y378137D01*
X366493Y378119D01*
X366475Y377952D01*
X366475Y369968D01*
X365582Y369075D01*
X358318Y369075D01*
X357425Y369968D01*
X357425Y393232D01*
X358318Y394125D01*
X365582Y394125D01*
X366475Y393232D01*
X366475Y384048D01*
X366478Y384028D01*
X366476Y384009D01*
X366498Y383907D01*
X366514Y383805D01*
X366524Y383788D01*
X366528Y383768D01*
X366581Y383679D01*
X366630Y383588D01*
X366644Y383574D01*
X366654Y383557D01*
X366733Y383490D01*
X366808Y383418D01*
X366826Y383410D01*
X366841Y383397D01*
X366937Y383358D01*
X367031Y383315D01*
X367051Y383313D01*
X367069Y383305D01*
X367236Y383287D01*
X369364Y383287D01*
X369384Y383290D01*
X369403Y383288D01*
X369505Y383310D01*
X369607Y383326D01*
X369624Y383336D01*
X369644Y383340D01*
X369733Y383393D01*
X369824Y383442D01*
X369838Y383456D01*
X369855Y383466D01*
X369922Y383545D01*
X369994Y383620D01*
X370002Y383638D01*
X370015Y383653D01*
X370054Y383749D01*
X370097Y383843D01*
X370099Y383863D01*
X370107Y383881D01*
X370125Y384048D01*
X370125Y393232D01*
X371018Y394125D01*
X371602Y394125D01*
X371622Y394128D01*
X371641Y394126D01*
X371743Y394148D01*
X371845Y394164D01*
X371862Y394174D01*
X371882Y394178D01*
X371971Y394231D01*
X372062Y394280D01*
X372076Y394294D01*
X372093Y394304D01*
X372160Y394383D01*
X372232Y394458D01*
X372240Y394476D01*
X372253Y394491D01*
X372292Y394587D01*
X372335Y394681D01*
X372337Y394701D01*
X372345Y394719D01*
X372363Y394886D01*
X372363Y407347D01*
X373703Y408687D01*
X489897Y408687D01*
X550956Y347628D01*
X550972Y347616D01*
X550984Y347601D01*
X551072Y347545D01*
X551156Y347485D01*
X551174Y347479D01*
X551191Y347468D01*
X551292Y347443D01*
X551391Y347412D01*
X551411Y347413D01*
X551430Y347408D01*
X551533Y347416D01*
X551636Y347419D01*
X551655Y347425D01*
X551675Y347427D01*
X551770Y347467D01*
X551868Y347503D01*
X551883Y347516D01*
X551901Y347523D01*
X552032Y347628D01*
X555433Y351029D01*
X562167Y351029D01*
X566929Y346267D01*
X566929Y339533D01*
X562167Y334771D01*
X555433Y334771D01*
G37*
%LPD*%
%LPC*%
G36*
X313923Y118363D02*
X313923Y118363D01*
X308863Y123423D01*
X308863Y130577D01*
X313923Y135637D01*
X321077Y135637D01*
X321452Y135262D01*
X321468Y135251D01*
X321480Y135235D01*
X321568Y135179D01*
X321652Y135119D01*
X321671Y135113D01*
X321687Y135102D01*
X321788Y135077D01*
X321887Y135046D01*
X321907Y135047D01*
X321926Y135042D01*
X322029Y135050D01*
X322133Y135053D01*
X322151Y135060D01*
X322171Y135061D01*
X322266Y135102D01*
X322364Y135137D01*
X322379Y135150D01*
X322397Y135158D01*
X322528Y135262D01*
X329253Y141987D01*
X373387Y141987D01*
X373478Y142001D01*
X373568Y142009D01*
X373598Y142021D01*
X373630Y142026D01*
X373711Y142069D01*
X373795Y142105D01*
X373827Y142131D01*
X373848Y142142D01*
X373870Y142165D01*
X373926Y142210D01*
X500703Y268987D01*
X504952Y268987D01*
X504972Y268990D01*
X504991Y268988D01*
X505093Y269010D01*
X505195Y269026D01*
X505212Y269036D01*
X505232Y269040D01*
X505321Y269093D01*
X505412Y269142D01*
X505426Y269156D01*
X505443Y269166D01*
X505510Y269245D01*
X505582Y269320D01*
X505590Y269338D01*
X505603Y269353D01*
X505642Y269449D01*
X505685Y269543D01*
X505687Y269563D01*
X505695Y269581D01*
X505713Y269748D01*
X505713Y309887D01*
X505699Y309978D01*
X505691Y310068D01*
X505679Y310098D01*
X505674Y310130D01*
X505631Y310211D01*
X505595Y310295D01*
X505569Y310327D01*
X505558Y310348D01*
X505535Y310370D01*
X505490Y310426D01*
X469176Y346740D01*
X469102Y346793D01*
X469032Y346853D01*
X469002Y346865D01*
X468976Y346884D01*
X468889Y346911D01*
X468804Y346945D01*
X468763Y346949D01*
X468741Y346956D01*
X468709Y346955D01*
X468637Y346963D01*
X437203Y346963D01*
X435863Y348303D01*
X435863Y368314D01*
X435860Y368334D01*
X435862Y368353D01*
X435840Y368455D01*
X435824Y368557D01*
X435814Y368574D01*
X435810Y368594D01*
X435757Y368683D01*
X435708Y368774D01*
X435694Y368788D01*
X435684Y368805D01*
X435605Y368872D01*
X435530Y368944D01*
X435512Y368952D01*
X435497Y368965D01*
X435401Y369004D01*
X435307Y369047D01*
X435287Y369049D01*
X435269Y369057D01*
X435102Y369075D01*
X434518Y369075D01*
X433625Y369968D01*
X433625Y393232D01*
X434518Y394125D01*
X441782Y394125D01*
X442675Y393232D01*
X442675Y369968D01*
X441782Y369075D01*
X441198Y369075D01*
X441178Y369072D01*
X441159Y369074D01*
X441057Y369052D01*
X440955Y369036D01*
X440938Y369026D01*
X440918Y369022D01*
X440829Y368969D01*
X440738Y368920D01*
X440724Y368906D01*
X440707Y368896D01*
X440640Y368817D01*
X440568Y368742D01*
X440560Y368724D01*
X440547Y368709D01*
X440508Y368613D01*
X440465Y368519D01*
X440463Y368499D01*
X440455Y368481D01*
X440437Y368314D01*
X440437Y352298D01*
X440440Y352278D01*
X440438Y352259D01*
X440460Y352157D01*
X440476Y352055D01*
X440486Y352038D01*
X440490Y352018D01*
X440543Y351929D01*
X440592Y351838D01*
X440606Y351824D01*
X440616Y351807D01*
X440695Y351740D01*
X440770Y351668D01*
X440788Y351660D01*
X440803Y351647D01*
X440899Y351608D01*
X440993Y351565D01*
X441013Y351563D01*
X441031Y351555D01*
X441198Y351537D01*
X470847Y351537D01*
X510287Y312097D01*
X510287Y265753D01*
X508947Y264413D01*
X502913Y264413D01*
X502822Y264399D01*
X502732Y264391D01*
X502702Y264379D01*
X502670Y264374D01*
X502589Y264331D01*
X502505Y264295D01*
X502473Y264269D01*
X502452Y264258D01*
X502430Y264235D01*
X502374Y264190D01*
X375597Y137413D01*
X331463Y137413D01*
X331372Y137399D01*
X331282Y137391D01*
X331252Y137379D01*
X331220Y137374D01*
X331139Y137331D01*
X331055Y137295D01*
X331023Y137269D01*
X331002Y137258D01*
X330980Y137235D01*
X330924Y137190D01*
X325762Y132028D01*
X325751Y132012D01*
X325735Y132000D01*
X325679Y131913D01*
X325619Y131829D01*
X325613Y131810D01*
X325602Y131793D01*
X325577Y131692D01*
X325546Y131594D01*
X325547Y131574D01*
X325542Y131554D01*
X325550Y131451D01*
X325553Y131348D01*
X325560Y131329D01*
X325561Y131309D01*
X325602Y131214D01*
X325637Y131117D01*
X325650Y131101D01*
X325658Y131083D01*
X325762Y130952D01*
X326137Y130577D01*
X326137Y123423D01*
X321077Y118363D01*
X313923Y118363D01*
G37*
%LPD*%
%LPC*%
G36*
X701761Y79755D02*
X701761Y79755D01*
X698400Y81147D01*
X695827Y83720D01*
X694435Y87081D01*
X694435Y90719D01*
X695504Y93299D01*
X695526Y93394D01*
X695555Y93487D01*
X695554Y93513D01*
X695560Y93538D01*
X695551Y93635D01*
X695548Y93732D01*
X695539Y93757D01*
X695537Y93783D01*
X695497Y93872D01*
X695464Y93963D01*
X695448Y93984D01*
X695437Y94008D01*
X695371Y94080D01*
X695310Y94156D01*
X695288Y94170D01*
X695270Y94189D01*
X695185Y94236D01*
X695103Y94289D01*
X695078Y94295D01*
X695055Y94308D01*
X694959Y94325D01*
X694865Y94349D01*
X694839Y94347D01*
X694813Y94351D01*
X694716Y94337D01*
X694620Y94329D01*
X694596Y94319D01*
X694570Y94315D01*
X694483Y94271D01*
X694393Y94233D01*
X694368Y94213D01*
X694350Y94204D01*
X694327Y94180D01*
X694262Y94128D01*
X688310Y88176D01*
X686747Y86613D01*
X532453Y86613D01*
X525728Y93338D01*
X525712Y93349D01*
X525700Y93365D01*
X525613Y93421D01*
X525529Y93481D01*
X525510Y93487D01*
X525493Y93498D01*
X525392Y93523D01*
X525294Y93554D01*
X525274Y93553D01*
X525254Y93558D01*
X525151Y93550D01*
X525048Y93547D01*
X525029Y93540D01*
X525009Y93539D01*
X524914Y93498D01*
X524817Y93463D01*
X524801Y93450D01*
X524783Y93442D01*
X524652Y93338D01*
X524277Y92963D01*
X517123Y92963D01*
X512063Y98023D01*
X512063Y105177D01*
X517123Y110237D01*
X524277Y110237D01*
X529337Y105177D01*
X529337Y98023D01*
X528962Y97648D01*
X528951Y97632D01*
X528935Y97620D01*
X528879Y97532D01*
X528819Y97448D01*
X528813Y97429D01*
X528802Y97413D01*
X528777Y97312D01*
X528746Y97213D01*
X528747Y97193D01*
X528742Y97174D01*
X528750Y97071D01*
X528753Y96967D01*
X528760Y96949D01*
X528761Y96929D01*
X528802Y96834D01*
X528837Y96736D01*
X528850Y96721D01*
X528858Y96703D01*
X528962Y96572D01*
X534124Y91410D01*
X534198Y91357D01*
X534268Y91297D01*
X534298Y91285D01*
X534324Y91266D01*
X534411Y91239D01*
X534496Y91205D01*
X534537Y91201D01*
X534559Y91194D01*
X534591Y91195D01*
X534663Y91187D01*
X684537Y91187D01*
X684628Y91201D01*
X684718Y91209D01*
X684748Y91221D01*
X684780Y91226D01*
X684861Y91269D01*
X684945Y91305D01*
X684977Y91331D01*
X684998Y91342D01*
X685020Y91365D01*
X685076Y91410D01*
X698877Y105211D01*
X698904Y105248D01*
X698937Y105279D01*
X698975Y105347D01*
X699020Y105410D01*
X699034Y105454D01*
X699056Y105495D01*
X699070Y105571D01*
X699093Y105645D01*
X699091Y105691D01*
X699100Y105737D01*
X699088Y105814D01*
X699086Y105891D01*
X699071Y105934D01*
X699064Y105980D01*
X699029Y106049D01*
X699002Y106122D01*
X698973Y106158D01*
X698952Y106199D01*
X698897Y106254D01*
X698848Y106314D01*
X698809Y106339D01*
X698777Y106371D01*
X698657Y106437D01*
X698641Y106447D01*
X698636Y106449D01*
X698630Y106452D01*
X698400Y106547D01*
X695827Y109120D01*
X694435Y112481D01*
X694435Y116119D01*
X695827Y119480D01*
X698400Y122053D01*
X701761Y123445D01*
X720639Y123445D01*
X724000Y122053D01*
X726573Y119480D01*
X727965Y116119D01*
X727965Y112481D01*
X726573Y109120D01*
X724000Y106547D01*
X720639Y105155D01*
X705605Y105155D01*
X705514Y105141D01*
X705424Y105133D01*
X705394Y105121D01*
X705362Y105116D01*
X705281Y105073D01*
X705197Y105037D01*
X705165Y105011D01*
X705144Y105000D01*
X705122Y104977D01*
X705066Y104932D01*
X698352Y98218D01*
X698306Y98154D01*
X698285Y98133D01*
X698280Y98121D01*
X698233Y98064D01*
X698223Y98039D01*
X698208Y98018D01*
X698179Y97925D01*
X698145Y97834D01*
X698143Y97808D01*
X698136Y97783D01*
X698138Y97686D01*
X698134Y97588D01*
X698141Y97563D01*
X698142Y97537D01*
X698176Y97446D01*
X698203Y97352D01*
X698218Y97331D01*
X698227Y97306D01*
X698287Y97230D01*
X698343Y97150D01*
X698364Y97134D01*
X698380Y97114D01*
X698462Y97061D01*
X698540Y97003D01*
X698565Y96995D01*
X698587Y96981D01*
X698682Y96957D01*
X698774Y96927D01*
X698800Y96927D01*
X698826Y96921D01*
X698923Y96929D01*
X699020Y96929D01*
X699052Y96939D01*
X699071Y96940D01*
X699101Y96953D01*
X699181Y96976D01*
X701761Y98045D01*
X720639Y98045D01*
X724000Y96653D01*
X726573Y94080D01*
X727965Y90719D01*
X727965Y87081D01*
X726573Y83720D01*
X724000Y81147D01*
X720639Y79755D01*
X701761Y79755D01*
G37*
%LPD*%
%LPC*%
G36*
X226402Y153443D02*
X226402Y153443D01*
X223293Y156552D01*
X223293Y160948D01*
X226402Y164057D01*
X230357Y164057D01*
X230448Y164071D01*
X230538Y164079D01*
X230568Y164091D01*
X230600Y164096D01*
X230681Y164139D01*
X230765Y164175D01*
X230797Y164201D01*
X230818Y164212D01*
X230840Y164235D01*
X230896Y164280D01*
X318320Y251704D01*
X318363Y251763D01*
X318407Y251810D01*
X318415Y251827D01*
X318433Y251848D01*
X318445Y251878D01*
X318464Y251904D01*
X318489Y251987D01*
X318511Y252033D01*
X318512Y252044D01*
X318525Y252076D01*
X318529Y252117D01*
X318536Y252139D01*
X318535Y252171D01*
X318543Y252243D01*
X318543Y256198D01*
X321652Y259307D01*
X326048Y259307D01*
X328845Y256510D01*
X328919Y256457D01*
X328989Y256397D01*
X329019Y256385D01*
X329045Y256366D01*
X329132Y256339D01*
X329217Y256305D01*
X329258Y256301D01*
X329280Y256294D01*
X329312Y256295D01*
X329383Y256287D01*
X459613Y256287D01*
X459633Y256290D01*
X459652Y256288D01*
X459754Y256310D01*
X459856Y256326D01*
X459873Y256336D01*
X459893Y256340D01*
X459982Y256393D01*
X460073Y256442D01*
X460087Y256456D01*
X460104Y256466D01*
X460171Y256545D01*
X460243Y256620D01*
X460251Y256638D01*
X460264Y256653D01*
X460303Y256749D01*
X460346Y256843D01*
X460348Y256863D01*
X460356Y256881D01*
X460374Y257048D01*
X460374Y257946D01*
X465954Y263526D01*
X473846Y263526D01*
X479426Y257946D01*
X479426Y250054D01*
X473846Y244474D01*
X465954Y244474D01*
X460374Y250054D01*
X460374Y250952D01*
X460371Y250972D01*
X460373Y250991D01*
X460351Y251093D01*
X460335Y251195D01*
X460325Y251212D01*
X460321Y251232D01*
X460268Y251321D01*
X460219Y251412D01*
X460205Y251426D01*
X460195Y251443D01*
X460116Y251510D01*
X460041Y251582D01*
X460023Y251590D01*
X460008Y251603D01*
X459912Y251642D01*
X459818Y251685D01*
X459798Y251687D01*
X459780Y251695D01*
X459613Y251713D01*
X329383Y251713D01*
X329293Y251699D01*
X329202Y251691D01*
X329173Y251679D01*
X329141Y251674D01*
X329060Y251631D01*
X328976Y251595D01*
X328944Y251569D01*
X328923Y251558D01*
X328901Y251535D01*
X328845Y251490D01*
X326048Y248693D01*
X322093Y248693D01*
X322002Y248679D01*
X321912Y248671D01*
X321882Y248659D01*
X321850Y248654D01*
X321769Y248611D01*
X321685Y248575D01*
X321653Y248549D01*
X321632Y248538D01*
X321610Y248515D01*
X321554Y248470D01*
X234130Y161046D01*
X234077Y160972D01*
X234017Y160902D01*
X234005Y160872D01*
X233986Y160846D01*
X233959Y160759D01*
X233925Y160674D01*
X233921Y160633D01*
X233914Y160611D01*
X233915Y160579D01*
X233907Y160507D01*
X233907Y156552D01*
X230798Y153443D01*
X226402Y153443D01*
G37*
%LPD*%
%LPC*%
G36*
X358318Y317075D02*
X358318Y317075D01*
X357425Y317968D01*
X357425Y331175D01*
X357411Y331266D01*
X357403Y331356D01*
X357391Y331386D01*
X357386Y331418D01*
X357343Y331499D01*
X357307Y331583D01*
X357281Y331615D01*
X357270Y331636D01*
X357247Y331658D01*
X357202Y331714D01*
X323126Y365790D01*
X323052Y365843D01*
X322982Y365903D01*
X322952Y365915D01*
X322926Y365934D01*
X322839Y365961D01*
X322754Y365995D01*
X322713Y365999D01*
X322691Y366006D01*
X322659Y366005D01*
X322587Y366013D01*
X179063Y366013D01*
X178972Y365999D01*
X178882Y365991D01*
X178852Y365979D01*
X178820Y365974D01*
X178739Y365931D01*
X178655Y365895D01*
X178623Y365869D01*
X178602Y365858D01*
X178580Y365835D01*
X178524Y365790D01*
X160752Y348018D01*
X160699Y347944D01*
X160639Y347874D01*
X160627Y347844D01*
X160608Y347818D01*
X160581Y347731D01*
X160547Y347646D01*
X160543Y347605D01*
X160536Y347583D01*
X160537Y347551D01*
X160529Y347479D01*
X160529Y334679D01*
X159291Y331691D01*
X157005Y329405D01*
X154017Y328167D01*
X150783Y328167D01*
X147795Y329405D01*
X145509Y331691D01*
X144271Y334679D01*
X144271Y351121D01*
X145509Y354109D01*
X147795Y356395D01*
X150783Y357633D01*
X154017Y357633D01*
X157005Y356395D01*
X159295Y354105D01*
X159311Y354093D01*
X159323Y354078D01*
X159410Y354022D01*
X159494Y353962D01*
X159513Y353956D01*
X159530Y353945D01*
X159631Y353920D01*
X159729Y353889D01*
X159749Y353890D01*
X159769Y353885D01*
X159872Y353893D01*
X159975Y353896D01*
X159994Y353902D01*
X160014Y353904D01*
X160109Y353944D01*
X160206Y353980D01*
X160222Y353993D01*
X160240Y354000D01*
X160371Y354105D01*
X176853Y370587D01*
X324797Y370587D01*
X326360Y369024D01*
X356126Y339258D01*
X356184Y339216D01*
X356236Y339167D01*
X356283Y339145D01*
X356325Y339115D01*
X356394Y339094D01*
X356459Y339063D01*
X356511Y339058D01*
X356561Y339042D01*
X356632Y339044D01*
X356703Y339036D01*
X356754Y339047D01*
X356806Y339049D01*
X356874Y339073D01*
X356944Y339088D01*
X356989Y339115D01*
X357037Y339133D01*
X357093Y339178D01*
X357155Y339215D01*
X357189Y339254D01*
X357229Y339287D01*
X357268Y339347D01*
X357315Y339402D01*
X357334Y339450D01*
X357362Y339494D01*
X357380Y339563D01*
X357407Y339630D01*
X357415Y339701D01*
X357423Y339732D01*
X357421Y339756D01*
X357425Y339796D01*
X357425Y341232D01*
X358318Y342125D01*
X365582Y342125D01*
X366475Y341232D01*
X366475Y317968D01*
X365582Y317075D01*
X358318Y317075D01*
G37*
%LPD*%
%LPC*%
G36*
X478654Y282574D02*
X478654Y282574D01*
X473074Y288154D01*
X473074Y296046D01*
X478654Y301626D01*
X479552Y301626D01*
X479572Y301629D01*
X479591Y301627D01*
X479693Y301649D01*
X479795Y301665D01*
X479812Y301675D01*
X479832Y301679D01*
X479921Y301732D01*
X480012Y301781D01*
X480026Y301795D01*
X480043Y301805D01*
X480110Y301884D01*
X480182Y301959D01*
X480190Y301977D01*
X480203Y301992D01*
X480242Y302088D01*
X480285Y302182D01*
X480287Y302202D01*
X480295Y302220D01*
X480313Y302387D01*
X480313Y308102D01*
X480310Y308122D01*
X480312Y308141D01*
X480290Y308243D01*
X480274Y308345D01*
X480264Y308362D01*
X480260Y308382D01*
X480207Y308471D01*
X480158Y308562D01*
X480144Y308576D01*
X480134Y308593D01*
X480055Y308660D01*
X479980Y308732D01*
X479962Y308740D01*
X479947Y308753D01*
X479851Y308792D01*
X479757Y308835D01*
X479737Y308837D01*
X479719Y308845D01*
X479552Y308863D01*
X449903Y308863D01*
X448563Y310203D01*
X448563Y316314D01*
X448560Y316334D01*
X448562Y316353D01*
X448540Y316455D01*
X448524Y316557D01*
X448514Y316574D01*
X448510Y316594D01*
X448457Y316683D01*
X448408Y316774D01*
X448394Y316788D01*
X448384Y316805D01*
X448305Y316872D01*
X448230Y316944D01*
X448212Y316952D01*
X448197Y316965D01*
X448101Y317004D01*
X448007Y317047D01*
X447987Y317049D01*
X447969Y317057D01*
X447802Y317075D01*
X447218Y317075D01*
X446325Y317968D01*
X446325Y341232D01*
X447218Y342125D01*
X454482Y342125D01*
X455375Y341232D01*
X455375Y317968D01*
X454482Y317075D01*
X453898Y317075D01*
X453878Y317072D01*
X453859Y317074D01*
X453757Y317052D01*
X453655Y317036D01*
X453638Y317026D01*
X453618Y317022D01*
X453529Y316969D01*
X453438Y316920D01*
X453424Y316906D01*
X453407Y316896D01*
X453340Y316817D01*
X453268Y316742D01*
X453260Y316724D01*
X453247Y316709D01*
X453208Y316613D01*
X453165Y316519D01*
X453163Y316499D01*
X453155Y316481D01*
X453137Y316314D01*
X453137Y314198D01*
X453140Y314178D01*
X453138Y314159D01*
X453160Y314057D01*
X453176Y313955D01*
X453186Y313938D01*
X453190Y313918D01*
X453243Y313829D01*
X453292Y313738D01*
X453306Y313724D01*
X453316Y313707D01*
X453395Y313640D01*
X453470Y313568D01*
X453488Y313560D01*
X453503Y313547D01*
X453599Y313508D01*
X453693Y313465D01*
X453713Y313463D01*
X453731Y313455D01*
X453898Y313437D01*
X483547Y313437D01*
X484887Y312097D01*
X484887Y302387D01*
X484890Y302367D01*
X484888Y302348D01*
X484910Y302246D01*
X484926Y302144D01*
X484936Y302127D01*
X484940Y302107D01*
X484993Y302018D01*
X485042Y301927D01*
X485056Y301913D01*
X485066Y301896D01*
X485145Y301829D01*
X485220Y301757D01*
X485238Y301749D01*
X485253Y301736D01*
X485349Y301697D01*
X485443Y301654D01*
X485463Y301652D01*
X485481Y301644D01*
X485648Y301626D01*
X486546Y301626D01*
X492126Y296046D01*
X492126Y288154D01*
X486546Y282574D01*
X478654Y282574D01*
G37*
%LPD*%
%LPC*%
G36*
X861781Y97535D02*
X861781Y97535D01*
X858420Y98927D01*
X855847Y101500D01*
X854455Y104861D01*
X854455Y123739D01*
X855847Y127100D01*
X858420Y129673D01*
X861781Y131065D01*
X865419Y131065D01*
X868780Y129673D01*
X871353Y127100D01*
X872745Y123739D01*
X872745Y104861D01*
X871353Y101500D01*
X868780Y98927D01*
X865419Y97535D01*
X861781Y97535D01*
G37*
%LPD*%
%LPC*%
G36*
X741079Y347471D02*
X741079Y347471D01*
X738091Y348709D01*
X735805Y350995D01*
X734567Y353983D01*
X734567Y357217D01*
X735805Y360205D01*
X738091Y362491D01*
X741079Y363729D01*
X757521Y363729D01*
X760509Y362491D01*
X762795Y360205D01*
X764033Y357217D01*
X764033Y353983D01*
X762795Y350995D01*
X760509Y348709D01*
X757521Y347471D01*
X741079Y347471D01*
G37*
%LPD*%
%LPC*%
G36*
X125383Y328167D02*
X125383Y328167D01*
X122395Y329405D01*
X120109Y331691D01*
X118871Y334679D01*
X118871Y351121D01*
X120109Y354109D01*
X122395Y356395D01*
X125383Y357633D01*
X128617Y357633D01*
X131605Y356395D01*
X133891Y354109D01*
X135129Y351121D01*
X135129Y334679D01*
X133891Y331691D01*
X131605Y329405D01*
X128617Y328167D01*
X125383Y328167D01*
G37*
%LPD*%
%LPC*%
G36*
X741079Y398271D02*
X741079Y398271D01*
X738091Y399509D01*
X735805Y401795D01*
X734567Y404783D01*
X734567Y408017D01*
X735805Y411005D01*
X738091Y413291D01*
X741079Y414529D01*
X757521Y414529D01*
X760509Y413291D01*
X762795Y411005D01*
X764033Y408017D01*
X764033Y404783D01*
X762795Y401795D01*
X760509Y399509D01*
X757521Y398271D01*
X741079Y398271D01*
G37*
%LPD*%
%LPC*%
G36*
X99983Y328167D02*
X99983Y328167D01*
X96995Y329405D01*
X94709Y331691D01*
X93471Y334679D01*
X93471Y351121D01*
X94709Y354109D01*
X96995Y356395D01*
X99983Y357633D01*
X103217Y357633D01*
X106205Y356395D01*
X108491Y354109D01*
X109729Y351121D01*
X109729Y334679D01*
X108491Y331691D01*
X106205Y329405D01*
X103217Y328167D01*
X99983Y328167D01*
G37*
%LPD*%
%LPC*%
G36*
X741079Y296671D02*
X741079Y296671D01*
X738091Y297909D01*
X735805Y300195D01*
X734567Y303183D01*
X734567Y306417D01*
X735805Y309405D01*
X738091Y311691D01*
X741079Y312929D01*
X757521Y312929D01*
X760509Y311691D01*
X762795Y309405D01*
X764033Y306417D01*
X764033Y303183D01*
X762795Y300195D01*
X760509Y297909D01*
X757521Y296671D01*
X741079Y296671D01*
G37*
%LPD*%
%LPC*%
G36*
X74583Y328167D02*
X74583Y328167D01*
X71595Y329405D01*
X69309Y331691D01*
X68071Y334679D01*
X68071Y351121D01*
X69309Y354109D01*
X71595Y356395D01*
X74583Y357633D01*
X77817Y357633D01*
X80805Y356395D01*
X83091Y354109D01*
X84329Y351121D01*
X84329Y334679D01*
X83091Y331691D01*
X80805Y329405D01*
X77817Y328167D01*
X74583Y328167D01*
G37*
%LPD*%
%LPC*%
G36*
X741079Y245871D02*
X741079Y245871D01*
X738091Y247109D01*
X735805Y249395D01*
X734567Y252383D01*
X734567Y255617D01*
X735805Y258605D01*
X738091Y260891D01*
X741079Y262129D01*
X757521Y262129D01*
X760509Y260891D01*
X762795Y258605D01*
X764033Y255617D01*
X764033Y252383D01*
X762795Y249395D01*
X760509Y247109D01*
X757521Y245871D01*
X741079Y245871D01*
G37*
%LPD*%
%LPC*%
G36*
X741079Y220471D02*
X741079Y220471D01*
X738091Y221709D01*
X735805Y223995D01*
X734567Y226983D01*
X734567Y230217D01*
X735805Y233205D01*
X738091Y235491D01*
X741079Y236729D01*
X757521Y236729D01*
X760509Y235491D01*
X762795Y233205D01*
X764033Y230217D01*
X764033Y226983D01*
X762795Y223995D01*
X760509Y221709D01*
X757521Y220471D01*
X741079Y220471D01*
G37*
%LPD*%
%LPC*%
G36*
X741079Y372871D02*
X741079Y372871D01*
X738091Y374109D01*
X735805Y376395D01*
X734567Y379383D01*
X734567Y382617D01*
X735805Y385605D01*
X738091Y387891D01*
X741079Y389129D01*
X757521Y389129D01*
X760509Y387891D01*
X762795Y385605D01*
X764033Y382617D01*
X764033Y379383D01*
X762795Y376395D01*
X760509Y374109D01*
X757521Y372871D01*
X741079Y372871D01*
G37*
%LPD*%
%LPC*%
G36*
X741079Y322071D02*
X741079Y322071D01*
X738091Y323309D01*
X735805Y325595D01*
X734567Y328583D01*
X734567Y331817D01*
X735805Y334805D01*
X738091Y337091D01*
X741079Y338329D01*
X757521Y338329D01*
X760509Y337091D01*
X762795Y334805D01*
X764033Y331817D01*
X764033Y328583D01*
X762795Y325595D01*
X760509Y323309D01*
X757521Y322071D01*
X741079Y322071D01*
G37*
%LPD*%
%LPC*%
G36*
X404202Y356643D02*
X404202Y356643D01*
X401093Y359752D01*
X401093Y364148D01*
X404202Y367257D01*
X408598Y367257D01*
X411395Y364460D01*
X411469Y364407D01*
X411539Y364347D01*
X411569Y364335D01*
X411595Y364316D01*
X411682Y364289D01*
X411767Y364255D01*
X411808Y364251D01*
X411830Y364244D01*
X411862Y364245D01*
X411933Y364237D01*
X422402Y364237D01*
X422422Y364240D01*
X422441Y364238D01*
X422543Y364260D01*
X422645Y364276D01*
X422662Y364286D01*
X422682Y364290D01*
X422771Y364343D01*
X422862Y364392D01*
X422876Y364406D01*
X422893Y364416D01*
X422960Y364495D01*
X423032Y364570D01*
X423040Y364588D01*
X423053Y364603D01*
X423092Y364699D01*
X423135Y364793D01*
X423137Y364813D01*
X423145Y364831D01*
X423163Y364998D01*
X423163Y368314D01*
X423160Y368334D01*
X423162Y368353D01*
X423140Y368455D01*
X423124Y368557D01*
X423114Y368574D01*
X423110Y368594D01*
X423057Y368683D01*
X423008Y368774D01*
X422994Y368788D01*
X422984Y368805D01*
X422905Y368872D01*
X422830Y368944D01*
X422812Y368952D01*
X422797Y368965D01*
X422701Y369004D01*
X422607Y369047D01*
X422587Y369049D01*
X422569Y369057D01*
X422402Y369075D01*
X421818Y369075D01*
X420925Y369968D01*
X420925Y393232D01*
X421818Y394125D01*
X429082Y394125D01*
X429975Y393232D01*
X429975Y369968D01*
X429082Y369075D01*
X428498Y369075D01*
X428478Y369072D01*
X428459Y369074D01*
X428357Y369052D01*
X428255Y369036D01*
X428238Y369026D01*
X428218Y369022D01*
X428129Y368969D01*
X428038Y368920D01*
X428024Y368906D01*
X428007Y368896D01*
X427940Y368817D01*
X427868Y368742D01*
X427860Y368724D01*
X427847Y368709D01*
X427808Y368613D01*
X427765Y368519D01*
X427763Y368499D01*
X427755Y368481D01*
X427737Y368314D01*
X427737Y361003D01*
X426397Y359663D01*
X411933Y359663D01*
X411843Y359649D01*
X411752Y359641D01*
X411723Y359629D01*
X411691Y359624D01*
X411610Y359581D01*
X411526Y359545D01*
X411494Y359519D01*
X411473Y359508D01*
X411451Y359485D01*
X411395Y359440D01*
X408598Y356643D01*
X404202Y356643D01*
G37*
%LPD*%
%LPC*%
G36*
X277202Y286793D02*
X277202Y286793D01*
X274093Y289902D01*
X274093Y294298D01*
X277202Y297407D01*
X281598Y297407D01*
X284395Y294610D01*
X284469Y294557D01*
X284539Y294497D01*
X284569Y294485D01*
X284595Y294466D01*
X284682Y294439D01*
X284767Y294405D01*
X284808Y294401D01*
X284830Y294394D01*
X284862Y294395D01*
X284933Y294387D01*
X324667Y294387D01*
X324757Y294401D01*
X324848Y294409D01*
X324877Y294421D01*
X324909Y294426D01*
X324990Y294469D01*
X325074Y294505D01*
X325106Y294531D01*
X325127Y294542D01*
X325149Y294565D01*
X325205Y294610D01*
X328002Y297407D01*
X332398Y297407D01*
X335507Y294298D01*
X335507Y289902D01*
X332398Y286793D01*
X328002Y286793D01*
X325205Y289590D01*
X325131Y289643D01*
X325061Y289703D01*
X325031Y289715D01*
X325005Y289734D01*
X324918Y289761D01*
X324833Y289795D01*
X324792Y289799D01*
X324770Y289806D01*
X324738Y289805D01*
X324667Y289813D01*
X284933Y289813D01*
X284843Y289799D01*
X284752Y289791D01*
X284723Y289779D01*
X284691Y289774D01*
X284610Y289731D01*
X284526Y289695D01*
X284494Y289669D01*
X284473Y289658D01*
X284451Y289635D01*
X284395Y289590D01*
X281598Y286793D01*
X277202Y286793D01*
G37*
%LPD*%
%LPC*%
G36*
X397852Y305843D02*
X397852Y305843D01*
X394743Y308952D01*
X394743Y313348D01*
X397171Y315776D01*
X397213Y315834D01*
X397262Y315886D01*
X397284Y315933D01*
X397314Y315975D01*
X397336Y316044D01*
X397366Y316109D01*
X397371Y316161D01*
X397387Y316211D01*
X397385Y316282D01*
X397393Y316353D01*
X397382Y316404D01*
X397380Y316456D01*
X397356Y316524D01*
X397341Y316594D01*
X397314Y316639D01*
X397296Y316687D01*
X397251Y316743D01*
X397214Y316805D01*
X397175Y316839D01*
X397142Y316879D01*
X397082Y316918D01*
X397027Y316965D01*
X396979Y316984D01*
X396935Y317012D01*
X396866Y317030D01*
X396799Y317057D01*
X396728Y317065D01*
X396697Y317073D01*
X396674Y317071D01*
X396633Y317075D01*
X396418Y317075D01*
X395525Y317968D01*
X395525Y341232D01*
X396418Y342125D01*
X403682Y342125D01*
X404575Y341232D01*
X404575Y317968D01*
X403682Y317075D01*
X403467Y317075D01*
X403397Y317064D01*
X403325Y317062D01*
X403276Y317044D01*
X403225Y317036D01*
X403161Y317002D01*
X403094Y316977D01*
X403053Y316945D01*
X403007Y316920D01*
X402958Y316868D01*
X402902Y316824D01*
X402874Y316780D01*
X402838Y316742D01*
X402808Y316677D01*
X402769Y316617D01*
X402756Y316566D01*
X402734Y316519D01*
X402726Y316448D01*
X402709Y316378D01*
X402713Y316326D01*
X402707Y316275D01*
X402722Y316204D01*
X402728Y316133D01*
X402748Y316085D01*
X402759Y316034D01*
X402796Y315973D01*
X402824Y315907D01*
X402869Y315851D01*
X402886Y315823D01*
X402903Y315808D01*
X402929Y315776D01*
X405357Y313348D01*
X405357Y308952D01*
X402248Y305843D01*
X397852Y305843D01*
G37*
%LPD*%
%LPC*%
G36*
X808854Y434974D02*
X808854Y434974D01*
X803274Y440554D01*
X803274Y448446D01*
X808854Y454026D01*
X816746Y454026D01*
X822326Y448446D01*
X822326Y440554D01*
X816746Y434974D01*
X808854Y434974D01*
G37*
%LPD*%
%LPC*%
G36*
X821554Y396874D02*
X821554Y396874D01*
X815974Y402454D01*
X815974Y410346D01*
X821554Y415926D01*
X829446Y415926D01*
X835026Y410346D01*
X835026Y402454D01*
X829446Y396874D01*
X821554Y396874D01*
G37*
%LPD*%
%LPC*%
G36*
X821554Y295274D02*
X821554Y295274D01*
X815974Y300854D01*
X815974Y308746D01*
X821554Y314326D01*
X829446Y314326D01*
X835026Y308746D01*
X835026Y300854D01*
X829446Y295274D01*
X821554Y295274D01*
G37*
%LPD*%
%LPC*%
G36*
X796154Y180974D02*
X796154Y180974D01*
X790574Y186554D01*
X790574Y194446D01*
X796154Y200026D01*
X804046Y200026D01*
X809626Y194446D01*
X809626Y186554D01*
X804046Y180974D01*
X796154Y180974D01*
G37*
%LPD*%
%LPC*%
G36*
X542154Y244474D02*
X542154Y244474D01*
X536574Y250054D01*
X536574Y257946D01*
X542154Y263526D01*
X550046Y263526D01*
X555626Y257946D01*
X555626Y250054D01*
X550046Y244474D01*
X542154Y244474D01*
G37*
%LPD*%
%LPC*%
G36*
X516754Y244474D02*
X516754Y244474D01*
X511174Y250054D01*
X511174Y257946D01*
X516754Y263526D01*
X524646Y263526D01*
X530226Y257946D01*
X530226Y250054D01*
X524646Y244474D01*
X516754Y244474D01*
G37*
%LPD*%
%LPC*%
G36*
X605654Y28574D02*
X605654Y28574D01*
X600074Y34154D01*
X600074Y42046D01*
X605654Y47626D01*
X613546Y47626D01*
X619126Y42046D01*
X619126Y34154D01*
X613546Y28574D01*
X605654Y28574D01*
G37*
%LPD*%
%LPC*%
G36*
X237354Y244474D02*
X237354Y244474D01*
X231774Y250054D01*
X231774Y257946D01*
X237354Y263526D01*
X245246Y263526D01*
X250826Y257946D01*
X250826Y250054D01*
X245246Y244474D01*
X237354Y244474D01*
G37*
%LPD*%
%LPC*%
G36*
X199254Y244474D02*
X199254Y244474D01*
X193674Y250054D01*
X193674Y257946D01*
X199254Y263526D01*
X207146Y263526D01*
X212726Y257946D01*
X212726Y250054D01*
X207146Y244474D01*
X199254Y244474D01*
G37*
%LPD*%
%LPC*%
G36*
X821554Y244474D02*
X821554Y244474D01*
X815974Y250054D01*
X815974Y257946D01*
X821554Y263526D01*
X829446Y263526D01*
X835026Y257946D01*
X835026Y250054D01*
X829446Y244474D01*
X821554Y244474D01*
G37*
%LPD*%
%LPC*%
G36*
X326254Y180974D02*
X326254Y180974D01*
X320674Y186554D01*
X320674Y194446D01*
X326254Y200026D01*
X334146Y200026D01*
X339726Y194446D01*
X339726Y186554D01*
X334146Y180974D01*
X326254Y180974D01*
G37*
%LPD*%
%LPC*%
G36*
X288154Y180974D02*
X288154Y180974D01*
X282574Y186554D01*
X282574Y194446D01*
X288154Y200026D01*
X296046Y200026D01*
X301626Y194446D01*
X301626Y186554D01*
X296046Y180974D01*
X288154Y180974D01*
G37*
%LPD*%
%LPC*%
G36*
X427854Y206374D02*
X427854Y206374D01*
X422274Y211954D01*
X422274Y219846D01*
X427854Y225426D01*
X435746Y225426D01*
X441326Y219846D01*
X441326Y211954D01*
X435746Y206374D01*
X427854Y206374D01*
G37*
%LPD*%
%LPC*%
G36*
X821554Y346074D02*
X821554Y346074D01*
X815974Y351654D01*
X815974Y359546D01*
X821554Y365126D01*
X829446Y365126D01*
X835026Y359546D01*
X835026Y351654D01*
X829446Y346074D01*
X821554Y346074D01*
G37*
%LPD*%
%LPC*%
G36*
X212323Y118363D02*
X212323Y118363D01*
X207263Y123423D01*
X207263Y130577D01*
X212323Y135637D01*
X219477Y135637D01*
X224537Y130577D01*
X224537Y123423D01*
X219477Y118363D01*
X212323Y118363D01*
G37*
%LPD*%
%LPC*%
G36*
X491723Y92963D02*
X491723Y92963D01*
X486663Y98023D01*
X486663Y105177D01*
X491723Y110237D01*
X498877Y110237D01*
X503937Y105177D01*
X503937Y98023D01*
X498877Y92963D01*
X491723Y92963D01*
G37*
%LPD*%
%LPC*%
G36*
X466323Y92963D02*
X466323Y92963D01*
X461263Y98023D01*
X461263Y105177D01*
X466323Y110237D01*
X473477Y110237D01*
X478537Y105177D01*
X478537Y98023D01*
X473477Y92963D01*
X466323Y92963D01*
G37*
%LPD*%
%LPC*%
G36*
X440923Y92963D02*
X440923Y92963D01*
X435863Y98023D01*
X435863Y105177D01*
X440923Y110237D01*
X448077Y110237D01*
X453137Y105177D01*
X453137Y98023D01*
X448077Y92963D01*
X440923Y92963D01*
G37*
%LPD*%
%LPC*%
G36*
X415523Y92963D02*
X415523Y92963D01*
X410463Y98023D01*
X410463Y105177D01*
X415523Y110237D01*
X422677Y110237D01*
X427737Y105177D01*
X427737Y98023D01*
X422677Y92963D01*
X415523Y92963D01*
G37*
%LPD*%
%LPC*%
G36*
X567923Y118363D02*
X567923Y118363D01*
X562863Y123423D01*
X562863Y130577D01*
X567923Y135637D01*
X575077Y135637D01*
X580137Y130577D01*
X580137Y123423D01*
X575077Y118363D01*
X567923Y118363D01*
G37*
%LPD*%
%LPC*%
G36*
X390123Y92963D02*
X390123Y92963D01*
X385063Y98023D01*
X385063Y105177D01*
X390123Y110237D01*
X397277Y110237D01*
X402337Y105177D01*
X402337Y98023D01*
X397277Y92963D01*
X390123Y92963D01*
G37*
%LPD*%
%LPC*%
G36*
X364723Y92963D02*
X364723Y92963D01*
X359663Y98023D01*
X359663Y105177D01*
X364723Y110237D01*
X371877Y110237D01*
X376937Y105177D01*
X376937Y98023D01*
X371877Y92963D01*
X364723Y92963D01*
G37*
%LPD*%
%LPC*%
G36*
X313923Y92963D02*
X313923Y92963D01*
X308863Y98023D01*
X308863Y105177D01*
X313923Y110237D01*
X321077Y110237D01*
X326137Y105177D01*
X326137Y98023D01*
X321077Y92963D01*
X313923Y92963D01*
G37*
%LPD*%
%LPC*%
G36*
X288523Y92963D02*
X288523Y92963D01*
X283463Y98023D01*
X283463Y105177D01*
X288523Y110237D01*
X295677Y110237D01*
X300737Y105177D01*
X300737Y98023D01*
X295677Y92963D01*
X288523Y92963D01*
G37*
%LPD*%
%LPC*%
G36*
X263123Y92963D02*
X263123Y92963D01*
X258063Y98023D01*
X258063Y105177D01*
X263123Y110237D01*
X270277Y110237D01*
X275337Y105177D01*
X275337Y98023D01*
X270277Y92963D01*
X263123Y92963D01*
G37*
%LPD*%
%LPC*%
G36*
X237723Y92963D02*
X237723Y92963D01*
X232663Y98023D01*
X232663Y105177D01*
X237723Y110237D01*
X244877Y110237D01*
X249937Y105177D01*
X249937Y98023D01*
X244877Y92963D01*
X237723Y92963D01*
G37*
%LPD*%
%LPC*%
G36*
X212323Y92963D02*
X212323Y92963D01*
X207263Y98023D01*
X207263Y105177D01*
X212323Y110237D01*
X219477Y110237D01*
X224537Y105177D01*
X224537Y98023D01*
X219477Y92963D01*
X212323Y92963D01*
G37*
%LPD*%
%LPC*%
G36*
X186923Y92963D02*
X186923Y92963D01*
X181863Y98023D01*
X181863Y105177D01*
X186923Y110237D01*
X194077Y110237D01*
X199137Y105177D01*
X199137Y98023D01*
X194077Y92963D01*
X186923Y92963D01*
G37*
%LPD*%
%LPC*%
G36*
X161523Y92963D02*
X161523Y92963D01*
X156463Y98023D01*
X156463Y105177D01*
X161523Y110237D01*
X168677Y110237D01*
X173737Y105177D01*
X173737Y98023D01*
X168677Y92963D01*
X161523Y92963D01*
G37*
%LPD*%
%LPC*%
G36*
X136123Y92963D02*
X136123Y92963D01*
X131063Y98023D01*
X131063Y105177D01*
X136123Y110237D01*
X143277Y110237D01*
X148337Y105177D01*
X148337Y98023D01*
X143277Y92963D01*
X136123Y92963D01*
G37*
%LPD*%
%LPC*%
G36*
X110723Y92963D02*
X110723Y92963D01*
X105663Y98023D01*
X105663Y105177D01*
X110723Y110237D01*
X117877Y110237D01*
X122937Y105177D01*
X122937Y98023D01*
X117877Y92963D01*
X110723Y92963D01*
G37*
%LPD*%
%LPC*%
G36*
X593323Y92963D02*
X593323Y92963D01*
X588263Y98023D01*
X588263Y105177D01*
X593323Y110237D01*
X600477Y110237D01*
X605537Y105177D01*
X605537Y98023D01*
X600477Y92963D01*
X593323Y92963D01*
G37*
%LPD*%
%LPC*%
G36*
X567923Y92963D02*
X567923Y92963D01*
X562863Y98023D01*
X562863Y105177D01*
X567923Y110237D01*
X575077Y110237D01*
X580137Y105177D01*
X580137Y98023D01*
X575077Y92963D01*
X567923Y92963D01*
G37*
%LPD*%
%LPC*%
G36*
X542523Y92963D02*
X542523Y92963D01*
X537463Y98023D01*
X537463Y105177D01*
X542523Y110237D01*
X549677Y110237D01*
X554737Y105177D01*
X554737Y98023D01*
X549677Y92963D01*
X542523Y92963D01*
G37*
%LPD*%
%LPC*%
G36*
X339323Y92963D02*
X339323Y92963D01*
X334263Y98023D01*
X334263Y105177D01*
X339323Y110237D01*
X346477Y110237D01*
X351537Y105177D01*
X351537Y98023D01*
X346477Y92963D01*
X339323Y92963D01*
G37*
%LPD*%
%LPC*%
G36*
X186923Y118363D02*
X186923Y118363D01*
X181863Y123423D01*
X181863Y130577D01*
X186923Y135637D01*
X194077Y135637D01*
X199137Y130577D01*
X199137Y123423D01*
X194077Y118363D01*
X186923Y118363D01*
G37*
%LPD*%
%LPC*%
G36*
X161523Y118363D02*
X161523Y118363D01*
X156463Y123423D01*
X156463Y130577D01*
X161523Y135637D01*
X168677Y135637D01*
X173737Y130577D01*
X173737Y123423D01*
X168677Y118363D01*
X161523Y118363D01*
G37*
%LPD*%
%LPC*%
G36*
X136123Y118363D02*
X136123Y118363D01*
X131063Y123423D01*
X131063Y130577D01*
X136123Y135637D01*
X143277Y135637D01*
X148337Y130577D01*
X148337Y123423D01*
X143277Y118363D01*
X136123Y118363D01*
G37*
%LPD*%
%LPC*%
G36*
X110723Y118363D02*
X110723Y118363D01*
X105663Y123423D01*
X105663Y130577D01*
X110723Y135637D01*
X117877Y135637D01*
X122937Y130577D01*
X122937Y123423D01*
X117877Y118363D01*
X110723Y118363D01*
G37*
%LPD*%
%LPC*%
G36*
X517123Y118363D02*
X517123Y118363D01*
X512063Y123423D01*
X512063Y130577D01*
X517123Y135637D01*
X524277Y135637D01*
X529337Y130577D01*
X529337Y123423D01*
X524277Y118363D01*
X517123Y118363D01*
G37*
%LPD*%
%LPC*%
G36*
X491723Y118363D02*
X491723Y118363D01*
X486663Y123423D01*
X486663Y130577D01*
X491723Y135637D01*
X498877Y135637D01*
X503937Y130577D01*
X503937Y123423D01*
X498877Y118363D01*
X491723Y118363D01*
G37*
%LPD*%
%LPC*%
G36*
X466323Y118363D02*
X466323Y118363D01*
X461263Y123423D01*
X461263Y130577D01*
X466323Y135637D01*
X473477Y135637D01*
X478537Y130577D01*
X478537Y123423D01*
X473477Y118363D01*
X466323Y118363D01*
G37*
%LPD*%
%LPC*%
G36*
X440923Y118363D02*
X440923Y118363D01*
X435863Y123423D01*
X435863Y130577D01*
X440923Y135637D01*
X448077Y135637D01*
X453137Y130577D01*
X453137Y123423D01*
X448077Y118363D01*
X440923Y118363D01*
G37*
%LPD*%
%LPC*%
G36*
X415523Y118363D02*
X415523Y118363D01*
X410463Y123423D01*
X410463Y130577D01*
X415523Y135637D01*
X422677Y135637D01*
X427737Y130577D01*
X427737Y123423D01*
X422677Y118363D01*
X415523Y118363D01*
G37*
%LPD*%
%LPC*%
G36*
X390123Y118363D02*
X390123Y118363D01*
X385063Y123423D01*
X385063Y130577D01*
X390123Y135637D01*
X397277Y135637D01*
X402337Y130577D01*
X402337Y123423D01*
X397277Y118363D01*
X390123Y118363D01*
G37*
%LPD*%
%LPC*%
G36*
X364723Y118363D02*
X364723Y118363D01*
X359663Y123423D01*
X359663Y130577D01*
X364723Y135637D01*
X371877Y135637D01*
X376937Y130577D01*
X376937Y123423D01*
X371877Y118363D01*
X364723Y118363D01*
G37*
%LPD*%
%LPC*%
G36*
X339323Y118363D02*
X339323Y118363D01*
X334263Y123423D01*
X334263Y130577D01*
X339323Y135637D01*
X346477Y135637D01*
X351537Y130577D01*
X351537Y123423D01*
X346477Y118363D01*
X339323Y118363D01*
G37*
%LPD*%
%LPC*%
G36*
X288523Y118363D02*
X288523Y118363D01*
X283463Y123423D01*
X283463Y130577D01*
X288523Y135637D01*
X295677Y135637D01*
X300737Y130577D01*
X300737Y123423D01*
X295677Y118363D01*
X288523Y118363D01*
G37*
%LPD*%
%LPC*%
G36*
X263123Y118363D02*
X263123Y118363D01*
X258063Y123423D01*
X258063Y130577D01*
X263123Y135637D01*
X270277Y135637D01*
X275337Y130577D01*
X275337Y123423D01*
X270277Y118363D01*
X263123Y118363D01*
G37*
%LPD*%
%LPC*%
G36*
X237723Y118363D02*
X237723Y118363D01*
X232663Y123423D01*
X232663Y130577D01*
X237723Y135637D01*
X244877Y135637D01*
X249937Y130577D01*
X249937Y123423D01*
X244877Y118363D01*
X237723Y118363D01*
G37*
%LPD*%
%LPC*%
G36*
X595182Y118363D02*
X595182Y118363D01*
X592008Y119678D01*
X589578Y122108D01*
X588263Y125282D01*
X588263Y128718D01*
X589578Y131892D01*
X592008Y134322D01*
X595182Y135637D01*
X598618Y135637D01*
X601792Y134322D01*
X604222Y131892D01*
X605537Y128718D01*
X605537Y125282D01*
X604222Y122108D01*
X601792Y119678D01*
X598618Y118363D01*
X595182Y118363D01*
G37*
%LPD*%
%LPC*%
G36*
X421818Y317075D02*
X421818Y317075D01*
X420925Y317968D01*
X420925Y341232D01*
X421818Y342125D01*
X429082Y342125D01*
X429975Y341232D01*
X429975Y317968D01*
X429082Y317075D01*
X421818Y317075D01*
G37*
%LPD*%
%LPC*%
G36*
X434518Y317075D02*
X434518Y317075D01*
X433625Y317968D01*
X433625Y341232D01*
X434518Y342125D01*
X441782Y342125D01*
X442675Y341232D01*
X442675Y317968D01*
X441782Y317075D01*
X434518Y317075D01*
G37*
%LPD*%
%LPC*%
G36*
X409118Y317075D02*
X409118Y317075D01*
X408225Y317968D01*
X408225Y341232D01*
X409118Y342125D01*
X416382Y342125D01*
X417275Y341232D01*
X417275Y317968D01*
X416382Y317075D01*
X409118Y317075D01*
G37*
%LPD*%
%LPC*%
G36*
X383718Y317075D02*
X383718Y317075D01*
X382825Y317968D01*
X382825Y341232D01*
X383718Y342125D01*
X390982Y342125D01*
X391875Y341232D01*
X391875Y317968D01*
X390982Y317075D01*
X383718Y317075D01*
G37*
%LPD*%
%LPC*%
G36*
X371018Y317075D02*
X371018Y317075D01*
X370125Y317968D01*
X370125Y341232D01*
X371018Y342125D01*
X378282Y342125D01*
X379175Y341232D01*
X379175Y317968D01*
X378282Y317075D01*
X371018Y317075D01*
G37*
%LPD*%
%LPC*%
G36*
X555433Y283971D02*
X555433Y283971D01*
X550671Y288733D01*
X550671Y295467D01*
X555433Y300229D01*
X562167Y300229D01*
X566929Y295467D01*
X566929Y288733D01*
X562167Y283971D01*
X555433Y283971D01*
G37*
%LPD*%
%LPC*%
G36*
X890523Y115823D02*
X890523Y115823D01*
X890523Y131966D01*
X891379Y131831D01*
X892900Y131336D01*
X894325Y130610D01*
X895619Y129670D01*
X896750Y128539D01*
X897690Y127245D01*
X898416Y125820D01*
X898911Y124299D01*
X899161Y122720D01*
X899161Y115823D01*
X890523Y115823D01*
G37*
%LPD*%
%LPC*%
G36*
X712723Y141223D02*
X712723Y141223D01*
X712723Y149861D01*
X719620Y149861D01*
X721199Y149611D01*
X722720Y149116D01*
X724145Y148390D01*
X725439Y147450D01*
X726570Y146319D01*
X727510Y145025D01*
X728236Y143600D01*
X728731Y142079D01*
X728866Y141223D01*
X712723Y141223D01*
G37*
%LPD*%
%LPC*%
G36*
X693534Y141223D02*
X693534Y141223D01*
X693669Y142079D01*
X694164Y143600D01*
X694890Y145025D01*
X695830Y146319D01*
X696961Y147450D01*
X698255Y148390D01*
X699680Y149116D01*
X701201Y149611D01*
X702780Y149861D01*
X709677Y149861D01*
X709677Y141223D01*
X693534Y141223D01*
G37*
%LPD*%
%LPC*%
G36*
X890523Y112777D02*
X890523Y112777D01*
X899161Y112777D01*
X899161Y105880D01*
X898911Y104301D01*
X898416Y102780D01*
X897690Y101355D01*
X896750Y100061D01*
X895619Y98930D01*
X894325Y97990D01*
X892900Y97264D01*
X891379Y96769D01*
X890523Y96634D01*
X890523Y112777D01*
G37*
%LPD*%
%LPC*%
G36*
X712723Y129539D02*
X712723Y129539D01*
X712723Y138177D01*
X728866Y138177D01*
X728731Y137321D01*
X728236Y135800D01*
X727510Y134375D01*
X726570Y133081D01*
X725439Y131950D01*
X724145Y131010D01*
X722720Y130284D01*
X721199Y129789D01*
X719620Y129539D01*
X712723Y129539D01*
G37*
%LPD*%
%LPC*%
G36*
X878839Y115823D02*
X878839Y115823D01*
X878839Y122720D01*
X879089Y124299D01*
X879584Y125820D01*
X880310Y127245D01*
X881250Y128539D01*
X882381Y129670D01*
X883675Y130610D01*
X885100Y131336D01*
X886621Y131831D01*
X887477Y131966D01*
X887477Y115823D01*
X878839Y115823D01*
G37*
%LPD*%
%LPC*%
G36*
X886621Y96769D02*
X886621Y96769D01*
X885100Y97264D01*
X883675Y97990D01*
X882381Y98930D01*
X881250Y100061D01*
X880310Y101355D01*
X879584Y102780D01*
X879089Y104301D01*
X878839Y105880D01*
X878839Y112777D01*
X887477Y112777D01*
X887477Y96634D01*
X886621Y96769D01*
G37*
%LPD*%
%LPC*%
G36*
X702780Y129539D02*
X702780Y129539D01*
X701201Y129789D01*
X699680Y130284D01*
X698255Y131010D01*
X696961Y131950D01*
X695830Y133081D01*
X694890Y134375D01*
X694164Y135800D01*
X693669Y137321D01*
X693534Y138177D01*
X709677Y138177D01*
X709677Y129539D01*
X702780Y129539D01*
G37*
%LPD*%
%LPC*%
G36*
X179323Y344423D02*
X179323Y344423D01*
X179323Y358525D01*
X180467Y358297D01*
X182132Y357608D01*
X183630Y356607D01*
X184903Y355334D01*
X185904Y353836D01*
X186593Y352171D01*
X186945Y350405D01*
X186945Y344423D01*
X179323Y344423D01*
G37*
%LPD*%
%LPC*%
G36*
X750823Y280923D02*
X750823Y280923D01*
X750823Y288545D01*
X756805Y288545D01*
X758571Y288193D01*
X760236Y287504D01*
X761734Y286503D01*
X763007Y285230D01*
X764008Y283732D01*
X764697Y282067D01*
X764925Y280923D01*
X750823Y280923D01*
G37*
%LPD*%
%LPC*%
G36*
X179323Y341377D02*
X179323Y341377D01*
X186945Y341377D01*
X186945Y335395D01*
X186593Y333629D01*
X185904Y331964D01*
X184903Y330466D01*
X183630Y329193D01*
X182132Y328192D01*
X180467Y327503D01*
X179323Y327275D01*
X179323Y341377D01*
G37*
%LPD*%
%LPC*%
G36*
X733675Y280923D02*
X733675Y280923D01*
X733903Y282067D01*
X734592Y283732D01*
X735593Y285230D01*
X736866Y286503D01*
X738364Y287504D01*
X740029Y288193D01*
X741795Y288545D01*
X747777Y288545D01*
X747777Y280923D01*
X733675Y280923D01*
G37*
%LPD*%
%LPC*%
G36*
X750823Y270255D02*
X750823Y270255D01*
X750823Y277877D01*
X764925Y277877D01*
X764697Y276733D01*
X764008Y275068D01*
X763007Y273570D01*
X761734Y272297D01*
X760236Y271296D01*
X758571Y270607D01*
X756805Y270255D01*
X750823Y270255D01*
G37*
%LPD*%
%LPC*%
G36*
X168655Y344423D02*
X168655Y344423D01*
X168655Y350405D01*
X169007Y352171D01*
X169696Y353836D01*
X170697Y355334D01*
X171970Y356607D01*
X173468Y357608D01*
X175133Y358297D01*
X176277Y358525D01*
X176277Y344423D01*
X168655Y344423D01*
G37*
%LPD*%
%LPC*%
G36*
X175133Y327503D02*
X175133Y327503D01*
X173468Y328192D01*
X171970Y329193D01*
X170697Y330466D01*
X169696Y331964D01*
X169007Y333629D01*
X168655Y335395D01*
X168655Y341377D01*
X176277Y341377D01*
X176277Y327275D01*
X175133Y327503D01*
G37*
%LPD*%
%LPC*%
G36*
X741795Y270255D02*
X741795Y270255D01*
X740029Y270607D01*
X738364Y271296D01*
X736866Y272297D01*
X735593Y273570D01*
X734592Y275068D01*
X733903Y276733D01*
X733675Y277877D01*
X747777Y277877D01*
X747777Y270255D01*
X741795Y270255D01*
G37*
%LPD*%
%LPC*%
G36*
X547623Y128523D02*
X547623Y128523D01*
X547623Y136653D01*
X550098Y136653D01*
X555753Y130998D01*
X555753Y128523D01*
X547623Y128523D01*
G37*
%LPD*%
%LPC*%
G36*
X536447Y128523D02*
X536447Y128523D01*
X536447Y130998D01*
X542102Y136653D01*
X544577Y136653D01*
X544577Y128523D01*
X536447Y128523D01*
G37*
%LPD*%
%LPC*%
G36*
X547623Y117347D02*
X547623Y117347D01*
X547623Y125477D01*
X555753Y125477D01*
X555753Y123002D01*
X550098Y117347D01*
X547623Y117347D01*
G37*
%LPD*%
%LPC*%
G36*
X542102Y117347D02*
X542102Y117347D01*
X536447Y123002D01*
X536447Y125477D01*
X544577Y125477D01*
X544577Y117347D01*
X542102Y117347D01*
G37*
%LPD*%
%LPC*%
G36*
X388849Y383099D02*
X388849Y383099D01*
X388849Y395141D01*
X390684Y395141D01*
X391331Y394968D01*
X391910Y394633D01*
X392383Y394160D01*
X392718Y393581D01*
X392891Y392934D01*
X392891Y383099D01*
X388849Y383099D01*
G37*
%LPD*%
%LPC*%
G36*
X452349Y383099D02*
X452349Y383099D01*
X452349Y395141D01*
X454184Y395141D01*
X454831Y394968D01*
X455410Y394633D01*
X455883Y394160D01*
X456218Y393581D01*
X456391Y392934D01*
X456391Y383099D01*
X452349Y383099D01*
G37*
%LPD*%
%LPC*%
G36*
X388849Y368059D02*
X388849Y368059D01*
X388849Y380101D01*
X392891Y380101D01*
X392891Y370266D01*
X392718Y369619D01*
X392383Y369040D01*
X391910Y368567D01*
X391331Y368232D01*
X390684Y368059D01*
X388849Y368059D01*
G37*
%LPD*%
%LPC*%
G36*
X452349Y368059D02*
X452349Y368059D01*
X452349Y380101D01*
X456391Y380101D01*
X456391Y370266D01*
X456218Y369619D01*
X455883Y369040D01*
X455410Y368567D01*
X454831Y368232D01*
X454184Y368059D01*
X452349Y368059D01*
G37*
%LPD*%
%LPC*%
G36*
X381809Y383099D02*
X381809Y383099D01*
X381809Y392934D01*
X381982Y393581D01*
X382317Y394160D01*
X382790Y394633D01*
X383369Y394968D01*
X384016Y395141D01*
X385851Y395141D01*
X385851Y383099D01*
X381809Y383099D01*
G37*
%LPD*%
%LPC*%
G36*
X445309Y383099D02*
X445309Y383099D01*
X445309Y392934D01*
X445482Y393581D01*
X445817Y394160D01*
X446290Y394633D01*
X446869Y394968D01*
X447516Y395141D01*
X449351Y395141D01*
X449351Y383099D01*
X445309Y383099D01*
G37*
%LPD*%
%LPC*%
G36*
X447516Y368059D02*
X447516Y368059D01*
X446869Y368232D01*
X446290Y368567D01*
X445817Y369040D01*
X445482Y369619D01*
X445309Y370266D01*
X445309Y380101D01*
X449351Y380101D01*
X449351Y368059D01*
X447516Y368059D01*
G37*
%LPD*%
%LPC*%
G36*
X384016Y368059D02*
X384016Y368059D01*
X383369Y368232D01*
X382790Y368567D01*
X382317Y369040D01*
X381982Y369619D01*
X381809Y370266D01*
X381809Y380101D01*
X385851Y380101D01*
X385851Y368059D01*
X384016Y368059D01*
G37*
%LPD*%
%LPC*%
G36*
X711199Y139699D02*
X711199Y139699D01*
X711199Y139701D01*
X711201Y139701D01*
X711201Y139699D01*
X711199Y139699D01*
G37*
%LPD*%
%LPC*%
G36*
X177799Y342899D02*
X177799Y342899D01*
X177799Y342901D01*
X177801Y342901D01*
X177801Y342899D01*
X177799Y342899D01*
G37*
%LPD*%
%LPC*%
G36*
X749299Y279399D02*
X749299Y279399D01*
X749299Y279401D01*
X749301Y279401D01*
X749301Y279399D01*
X749299Y279399D01*
G37*
%LPD*%
%LPC*%
G36*
X888999Y114299D02*
X888999Y114299D01*
X888999Y114301D01*
X889001Y114301D01*
X889001Y114299D01*
X888999Y114299D01*
G37*
%LPD*%
%LPC*%
G36*
X546099Y126999D02*
X546099Y126999D01*
X546099Y127001D01*
X546101Y127001D01*
X546101Y126999D01*
X546099Y126999D01*
G37*
%LPD*%
D10*
X863600Y106680D02*
X863600Y121920D01*
X889000Y121920D02*
X889000Y106680D01*
D11*
X825500Y254000D03*
X330200Y190500D03*
X469900Y254000D03*
X520700Y254000D03*
X546100Y254000D03*
X609600Y38100D03*
X431800Y215900D03*
X482600Y292100D03*
X825500Y304800D03*
X825500Y355600D03*
X203200Y254000D03*
X800100Y190500D03*
X825500Y406400D03*
X812800Y444500D03*
X241300Y254000D03*
X292100Y190500D03*
D12*
X558800Y292100D03*
X558800Y342900D03*
D10*
X703580Y88900D02*
X718820Y88900D01*
X718820Y114300D02*
X703580Y114300D01*
X703580Y139700D02*
X718820Y139700D01*
D13*
X742696Y228600D02*
X755904Y228600D01*
X755904Y254000D02*
X742696Y254000D01*
X742696Y279400D02*
X755904Y279400D01*
X755904Y304800D02*
X742696Y304800D01*
X742696Y330200D02*
X755904Y330200D01*
X755904Y355600D02*
X742696Y355600D01*
X742696Y381000D02*
X755904Y381000D01*
X755904Y406400D02*
X742696Y406400D01*
D14*
X596900Y127000D03*
D15*
X596900Y101600D03*
X571500Y127000D03*
X571500Y101600D03*
X546100Y127000D03*
X546100Y101600D03*
X520700Y127000D03*
X520700Y101600D03*
X495300Y127000D03*
X495300Y101600D03*
X469900Y127000D03*
X469900Y101600D03*
X444500Y127000D03*
X444500Y101600D03*
X419100Y127000D03*
X419100Y101600D03*
X393700Y127000D03*
X393700Y101600D03*
X368300Y127000D03*
X368300Y101600D03*
X342900Y127000D03*
X342900Y101600D03*
X317500Y127000D03*
X317500Y101600D03*
X292100Y127000D03*
X292100Y101600D03*
X266700Y127000D03*
X266700Y101600D03*
X241300Y127000D03*
X241300Y101600D03*
X215900Y127000D03*
X215900Y101600D03*
X190500Y127000D03*
X190500Y101600D03*
X165100Y127000D03*
X165100Y101600D03*
X139700Y127000D03*
X139700Y101600D03*
X114300Y127000D03*
X114300Y101600D03*
D16*
X374650Y329600D03*
X400050Y381600D03*
X361950Y329600D03*
X387350Y329600D03*
X400050Y329600D03*
X387350Y381600D03*
X412750Y381600D03*
X425450Y381600D03*
X425450Y329600D03*
X450850Y381600D03*
X412750Y329600D03*
X438150Y329600D03*
X438150Y381600D03*
X450850Y329600D03*
X374650Y381600D03*
X361950Y381600D03*
D13*
X76200Y349504D02*
X76200Y336296D01*
X101600Y336296D02*
X101600Y349504D01*
X127000Y349504D02*
X127000Y336296D01*
X152400Y336296D02*
X152400Y349504D01*
X177800Y349504D02*
X177800Y336296D01*
D17*
X438150Y349250D02*
X438150Y381600D01*
X438150Y349250D02*
X469900Y349250D01*
X508000Y311150D01*
X508000Y266700D01*
X501650Y266700D01*
X374650Y139700D01*
X330200Y139700D01*
X317500Y127000D01*
X400050Y381600D02*
X400050Y400050D01*
D18*
X400050Y400050D03*
D17*
X412750Y400050D02*
X412750Y381600D01*
D18*
X412750Y400050D03*
D17*
X425450Y381600D02*
X425450Y361950D01*
X406400Y361950D01*
D18*
X406400Y361950D03*
D17*
X685800Y88900D02*
X711200Y114300D01*
X685800Y88900D02*
X533400Y88900D01*
X520700Y101600D01*
X361950Y330200D02*
X323850Y368300D01*
X177800Y368300D01*
X152400Y342900D01*
X361950Y330200D02*
X361950Y329600D01*
X361950Y381000D02*
X374650Y381000D01*
X361950Y381000D02*
X361950Y381600D01*
X374650Y381600D02*
X374650Y381000D01*
X374650Y381600D02*
X374650Y406400D01*
X488950Y406400D01*
X552450Y342900D01*
X558800Y342900D01*
X469900Y254000D02*
X323850Y254000D01*
D18*
X323850Y254000D03*
X228600Y158750D03*
D17*
X323850Y254000D01*
D18*
X279400Y292100D03*
D17*
X330200Y292100D01*
D18*
X330200Y292100D03*
D17*
X400050Y311150D02*
X400050Y329600D01*
D18*
X400050Y311150D03*
D17*
X450850Y311150D02*
X450850Y329600D01*
X450850Y311150D02*
X482600Y311150D01*
X482600Y292100D01*
M02*
