G04 EAGLE Gerber RS-274X export*
G75*
%MOMM*%
%FSLAX34Y34*%
%LPD*%
%INSilkscreen Top*%
%IPPOS*%
%AMOC8*
5,1,8,0,0,1.08239X$1,22.5*%
G01*
%ADD10C,0.152400*%
%ADD11C,0.127000*%
%ADD12C,0.101600*%


D10*
X857250Y127000D02*
X869950Y127000D01*
X876300Y120650D01*
X876300Y107950D01*
X869950Y101600D01*
X850900Y107950D02*
X850900Y120650D01*
X857250Y127000D01*
X850900Y107950D02*
X857250Y101600D01*
X869950Y101600D01*
X876300Y120650D02*
X882650Y127000D01*
X895350Y127000D01*
X901700Y120650D01*
X901700Y107950D01*
X895350Y101600D01*
X882650Y101600D01*
X876300Y107950D01*
D11*
X867283Y93853D02*
X867283Y84963D01*
X867281Y84863D01*
X867275Y84764D01*
X867265Y84664D01*
X867252Y84566D01*
X867234Y84467D01*
X867213Y84370D01*
X867188Y84274D01*
X867159Y84178D01*
X867126Y84084D01*
X867090Y83991D01*
X867050Y83900D01*
X867006Y83810D01*
X866959Y83722D01*
X866909Y83636D01*
X866855Y83552D01*
X866798Y83470D01*
X866738Y83391D01*
X866674Y83313D01*
X866608Y83239D01*
X866539Y83167D01*
X866467Y83098D01*
X866393Y83032D01*
X866315Y82968D01*
X866236Y82908D01*
X866154Y82851D01*
X866070Y82797D01*
X865984Y82747D01*
X865896Y82700D01*
X865806Y82656D01*
X865715Y82616D01*
X865622Y82580D01*
X865528Y82547D01*
X865432Y82518D01*
X865336Y82493D01*
X865239Y82472D01*
X865140Y82454D01*
X865042Y82441D01*
X864942Y82431D01*
X864843Y82425D01*
X864743Y82423D01*
X863473Y82423D01*
X873263Y82423D02*
X873263Y93853D01*
X876438Y93853D01*
X876549Y93851D01*
X876659Y93845D01*
X876770Y93836D01*
X876880Y93822D01*
X876989Y93805D01*
X877098Y93784D01*
X877206Y93759D01*
X877313Y93730D01*
X877419Y93698D01*
X877524Y93662D01*
X877627Y93622D01*
X877729Y93579D01*
X877830Y93532D01*
X877929Y93481D01*
X878026Y93428D01*
X878120Y93371D01*
X878213Y93310D01*
X878304Y93247D01*
X878393Y93180D01*
X878479Y93110D01*
X878562Y93037D01*
X878644Y92962D01*
X878722Y92884D01*
X878797Y92802D01*
X878870Y92719D01*
X878940Y92633D01*
X879007Y92544D01*
X879070Y92453D01*
X879131Y92360D01*
X879188Y92265D01*
X879241Y92169D01*
X879292Y92070D01*
X879339Y91969D01*
X879382Y91867D01*
X879422Y91764D01*
X879458Y91659D01*
X879490Y91553D01*
X879519Y91446D01*
X879544Y91338D01*
X879565Y91229D01*
X879582Y91120D01*
X879596Y91010D01*
X879605Y90899D01*
X879611Y90789D01*
X879613Y90678D01*
X879611Y90567D01*
X879605Y90457D01*
X879596Y90346D01*
X879582Y90236D01*
X879565Y90127D01*
X879544Y90018D01*
X879519Y89910D01*
X879490Y89803D01*
X879458Y89697D01*
X879422Y89592D01*
X879382Y89489D01*
X879339Y89387D01*
X879292Y89286D01*
X879241Y89187D01*
X879188Y89090D01*
X879131Y88996D01*
X879070Y88903D01*
X879007Y88812D01*
X878940Y88723D01*
X878870Y88637D01*
X878797Y88554D01*
X878722Y88472D01*
X878644Y88394D01*
X878562Y88319D01*
X878479Y88246D01*
X878393Y88176D01*
X878304Y88109D01*
X878213Y88046D01*
X878120Y87985D01*
X878026Y87928D01*
X877929Y87875D01*
X877830Y87824D01*
X877729Y87777D01*
X877627Y87734D01*
X877524Y87694D01*
X877419Y87658D01*
X877313Y87626D01*
X877206Y87597D01*
X877098Y87572D01*
X876989Y87551D01*
X876880Y87534D01*
X876770Y87520D01*
X876659Y87511D01*
X876549Y87505D01*
X876438Y87503D01*
X873263Y87503D01*
X884122Y91313D02*
X887297Y93853D01*
X887297Y82423D01*
X884122Y82423D02*
X890472Y82423D01*
D10*
X820420Y261620D02*
X817880Y261620D01*
X817880Y259080D01*
X833120Y259080D02*
X833120Y261620D01*
X830580Y261620D01*
X833120Y248920D02*
X833120Y246380D01*
X830580Y246380D01*
X820420Y246380D02*
X817880Y246380D01*
X817880Y248920D01*
X325120Y198120D02*
X322580Y198120D01*
X322580Y195580D01*
X337820Y195580D02*
X337820Y198120D01*
X335280Y198120D01*
X337820Y185420D02*
X337820Y182880D01*
X335280Y182880D01*
X325120Y182880D02*
X322580Y182880D01*
X322580Y185420D01*
X462280Y261620D02*
X464820Y261620D01*
X462280Y261620D02*
X462280Y259080D01*
X477520Y259080D02*
X477520Y261620D01*
X474980Y261620D01*
X477520Y248920D02*
X477520Y246380D01*
X474980Y246380D01*
X464820Y246380D02*
X462280Y246380D01*
X462280Y248920D01*
X513080Y261620D02*
X515620Y261620D01*
X513080Y261620D02*
X513080Y259080D01*
X528320Y259080D02*
X528320Y261620D01*
X525780Y261620D01*
X528320Y248920D02*
X528320Y246380D01*
X525780Y246380D01*
X515620Y246380D02*
X513080Y246380D01*
X513080Y248920D01*
X538480Y261620D02*
X541020Y261620D01*
X538480Y261620D02*
X538480Y259080D01*
X553720Y259080D02*
X553720Y261620D01*
X551180Y261620D01*
X553720Y248920D02*
X553720Y246380D01*
X551180Y246380D01*
X541020Y246380D02*
X538480Y246380D01*
X538480Y248920D01*
X601980Y45720D02*
X604520Y45720D01*
X601980Y45720D02*
X601980Y43180D01*
X617220Y43180D02*
X617220Y45720D01*
X614680Y45720D01*
X617220Y33020D02*
X617220Y30480D01*
X614680Y30480D01*
X604520Y30480D02*
X601980Y30480D01*
X601980Y33020D01*
X426720Y223520D02*
X424180Y223520D01*
X424180Y220980D01*
X439420Y220980D02*
X439420Y223520D01*
X436880Y223520D01*
X439420Y210820D02*
X439420Y208280D01*
X436880Y208280D01*
X426720Y208280D02*
X424180Y208280D01*
X424180Y210820D01*
X474980Y299720D02*
X477520Y299720D01*
X474980Y299720D02*
X474980Y297180D01*
X490220Y297180D02*
X490220Y299720D01*
X487680Y299720D01*
X490220Y287020D02*
X490220Y284480D01*
X487680Y284480D01*
X477520Y284480D02*
X474980Y284480D01*
X474980Y287020D01*
X817880Y312420D02*
X820420Y312420D01*
X817880Y312420D02*
X817880Y309880D01*
X833120Y309880D02*
X833120Y312420D01*
X830580Y312420D01*
X833120Y299720D02*
X833120Y297180D01*
X830580Y297180D01*
X820420Y297180D02*
X817880Y297180D01*
X817880Y299720D01*
X817880Y363220D02*
X820420Y363220D01*
X817880Y363220D02*
X817880Y360680D01*
X833120Y360680D02*
X833120Y363220D01*
X830580Y363220D01*
X833120Y350520D02*
X833120Y347980D01*
X830580Y347980D01*
X820420Y347980D02*
X817880Y347980D01*
X817880Y350520D01*
X198120Y261620D02*
X195580Y261620D01*
X195580Y259080D01*
X210820Y259080D02*
X210820Y261620D01*
X208280Y261620D01*
X210820Y248920D02*
X210820Y246380D01*
X208280Y246380D01*
X198120Y246380D02*
X195580Y246380D01*
X195580Y248920D01*
X792480Y198120D02*
X795020Y198120D01*
X792480Y198120D02*
X792480Y195580D01*
X807720Y195580D02*
X807720Y198120D01*
X805180Y198120D01*
X807720Y185420D02*
X807720Y182880D01*
X805180Y182880D01*
X795020Y182880D02*
X792480Y182880D01*
X792480Y185420D01*
X817880Y414020D02*
X820420Y414020D01*
X817880Y414020D02*
X817880Y411480D01*
X833120Y411480D02*
X833120Y414020D01*
X830580Y414020D01*
X833120Y401320D02*
X833120Y398780D01*
X830580Y398780D01*
X820420Y398780D02*
X817880Y398780D01*
X817880Y401320D01*
X807720Y452120D02*
X805180Y452120D01*
X805180Y449580D01*
X820420Y449580D02*
X820420Y452120D01*
X817880Y452120D01*
X820420Y439420D02*
X820420Y436880D01*
X817880Y436880D01*
X807720Y436880D02*
X805180Y436880D01*
X805180Y439420D01*
X236220Y261620D02*
X233680Y261620D01*
X233680Y259080D01*
X248920Y259080D02*
X248920Y261620D01*
X246380Y261620D01*
X248920Y248920D02*
X248920Y246380D01*
X246380Y246380D01*
X236220Y246380D02*
X233680Y246380D01*
X233680Y248920D01*
X284480Y198120D02*
X287020Y198120D01*
X284480Y198120D02*
X284480Y195580D01*
X299720Y195580D02*
X299720Y198120D01*
X297180Y198120D01*
X299720Y185420D02*
X299720Y182880D01*
X297180Y182880D01*
X287020Y182880D02*
X284480Y182880D01*
X284480Y185420D01*
X549910Y302260D02*
X549912Y302160D01*
X549918Y302061D01*
X549928Y301961D01*
X549941Y301863D01*
X549959Y301764D01*
X549980Y301667D01*
X550005Y301571D01*
X550034Y301475D01*
X550067Y301381D01*
X550103Y301288D01*
X550143Y301197D01*
X550187Y301107D01*
X550234Y301019D01*
X550284Y300933D01*
X550338Y300849D01*
X550395Y300767D01*
X550455Y300688D01*
X550519Y300610D01*
X550585Y300536D01*
X550654Y300464D01*
X550726Y300395D01*
X550800Y300329D01*
X550878Y300265D01*
X550957Y300205D01*
X551039Y300148D01*
X551123Y300094D01*
X551209Y300044D01*
X551297Y299997D01*
X551387Y299953D01*
X551478Y299913D01*
X551571Y299877D01*
X551665Y299844D01*
X551761Y299815D01*
X551857Y299790D01*
X551954Y299769D01*
X552053Y299751D01*
X552151Y299738D01*
X552251Y299728D01*
X552350Y299722D01*
X552450Y299720D01*
X565150Y299720D02*
X565250Y299722D01*
X565349Y299728D01*
X565449Y299738D01*
X565547Y299751D01*
X565646Y299769D01*
X565743Y299790D01*
X565839Y299815D01*
X565935Y299844D01*
X566029Y299877D01*
X566122Y299913D01*
X566213Y299953D01*
X566303Y299997D01*
X566391Y300044D01*
X566477Y300094D01*
X566561Y300148D01*
X566643Y300205D01*
X566722Y300265D01*
X566800Y300329D01*
X566874Y300395D01*
X566946Y300464D01*
X567015Y300536D01*
X567081Y300610D01*
X567145Y300688D01*
X567205Y300767D01*
X567262Y300849D01*
X567316Y300933D01*
X567366Y301019D01*
X567413Y301107D01*
X567457Y301197D01*
X567497Y301288D01*
X567533Y301381D01*
X567566Y301475D01*
X567595Y301571D01*
X567620Y301667D01*
X567641Y301764D01*
X567659Y301863D01*
X567672Y301961D01*
X567682Y302061D01*
X567688Y302160D01*
X567690Y302260D01*
X567690Y332740D02*
X567688Y332840D01*
X567682Y332939D01*
X567672Y333039D01*
X567659Y333137D01*
X567641Y333236D01*
X567620Y333333D01*
X567595Y333429D01*
X567566Y333525D01*
X567533Y333619D01*
X567497Y333712D01*
X567457Y333803D01*
X567413Y333893D01*
X567366Y333981D01*
X567316Y334067D01*
X567262Y334151D01*
X567205Y334233D01*
X567145Y334312D01*
X567081Y334390D01*
X567015Y334464D01*
X566946Y334536D01*
X566874Y334605D01*
X566800Y334671D01*
X566722Y334735D01*
X566643Y334795D01*
X566561Y334852D01*
X566477Y334906D01*
X566391Y334956D01*
X566303Y335003D01*
X566213Y335047D01*
X566122Y335087D01*
X566029Y335123D01*
X565935Y335156D01*
X565839Y335185D01*
X565743Y335210D01*
X565646Y335231D01*
X565547Y335249D01*
X565449Y335262D01*
X565349Y335272D01*
X565250Y335278D01*
X565150Y335280D01*
X552450Y335280D02*
X552350Y335278D01*
X552251Y335272D01*
X552151Y335262D01*
X552053Y335249D01*
X551954Y335231D01*
X551857Y335210D01*
X551761Y335185D01*
X551665Y335156D01*
X551571Y335123D01*
X551478Y335087D01*
X551387Y335047D01*
X551297Y335003D01*
X551209Y334956D01*
X551123Y334906D01*
X551039Y334852D01*
X550957Y334795D01*
X550878Y334735D01*
X550800Y334671D01*
X550726Y334605D01*
X550654Y334536D01*
X550585Y334464D01*
X550519Y334390D01*
X550455Y334312D01*
X550395Y334233D01*
X550338Y334151D01*
X550284Y334067D01*
X550234Y333981D01*
X550187Y333893D01*
X550143Y333803D01*
X550103Y333712D01*
X550067Y333619D01*
X550034Y333525D01*
X550005Y333429D01*
X549980Y333333D01*
X549959Y333236D01*
X549941Y333137D01*
X549928Y333039D01*
X549918Y332939D01*
X549912Y332840D01*
X549910Y332740D01*
X549910Y304800D02*
X549910Y302260D01*
X549910Y304800D02*
X551180Y306070D01*
X567690Y304800D02*
X567690Y302260D01*
X567690Y304800D02*
X566420Y306070D01*
X551180Y328930D02*
X549910Y330200D01*
X551180Y328930D02*
X551180Y306070D01*
X566420Y328930D02*
X567690Y330200D01*
X566420Y328930D02*
X566420Y306070D01*
X549910Y330200D02*
X549910Y332740D01*
X567690Y332740D02*
X567690Y330200D01*
D12*
X533908Y310642D02*
X525018Y310642D01*
X525018Y313111D01*
X525020Y313209D01*
X525026Y313307D01*
X525036Y313405D01*
X525049Y313502D01*
X525067Y313599D01*
X525088Y313695D01*
X525113Y313789D01*
X525142Y313883D01*
X525174Y313976D01*
X525211Y314067D01*
X525250Y314157D01*
X525294Y314245D01*
X525341Y314331D01*
X525391Y314416D01*
X525444Y314498D01*
X525501Y314578D01*
X525561Y314656D01*
X525624Y314731D01*
X525690Y314804D01*
X525759Y314874D01*
X525830Y314941D01*
X525904Y315006D01*
X525981Y315067D01*
X526060Y315126D01*
X526141Y315181D01*
X526224Y315233D01*
X526310Y315281D01*
X526397Y315326D01*
X526486Y315368D01*
X526576Y315406D01*
X526668Y315440D01*
X526761Y315471D01*
X526856Y315498D01*
X526951Y315521D01*
X527048Y315541D01*
X527144Y315556D01*
X527242Y315568D01*
X527340Y315576D01*
X527438Y315580D01*
X527536Y315580D01*
X527634Y315576D01*
X527732Y315568D01*
X527830Y315556D01*
X527926Y315541D01*
X528023Y315521D01*
X528118Y315498D01*
X528213Y315471D01*
X528306Y315440D01*
X528398Y315406D01*
X528488Y315368D01*
X528577Y315326D01*
X528664Y315281D01*
X528750Y315233D01*
X528833Y315181D01*
X528914Y315126D01*
X528993Y315067D01*
X529070Y315006D01*
X529144Y314941D01*
X529215Y314874D01*
X529284Y314804D01*
X529350Y314731D01*
X529413Y314656D01*
X529473Y314578D01*
X529530Y314498D01*
X529583Y314416D01*
X529633Y314331D01*
X529680Y314245D01*
X529724Y314157D01*
X529763Y314067D01*
X529800Y313976D01*
X529832Y313883D01*
X529861Y313789D01*
X529886Y313695D01*
X529907Y313599D01*
X529925Y313502D01*
X529938Y313405D01*
X529948Y313307D01*
X529954Y313209D01*
X529956Y313111D01*
X529957Y313111D02*
X529957Y310642D01*
X529957Y313605D02*
X533908Y315581D01*
X526994Y319492D02*
X525018Y321961D01*
X533908Y321961D01*
X533908Y319492D02*
X533908Y324431D01*
D10*
X698500Y95250D02*
X698500Y82550D01*
X698500Y95250D02*
X704850Y101600D01*
X717550Y101600D02*
X723900Y95250D01*
X704850Y101600D02*
X698500Y107950D01*
X698500Y120650D01*
X704850Y127000D01*
X717550Y127000D02*
X723900Y120650D01*
X723900Y107950D01*
X717550Y101600D01*
X717550Y76200D02*
X704850Y76200D01*
X698500Y82550D01*
X717550Y76200D02*
X723900Y82550D01*
X723900Y95250D01*
X704850Y127000D02*
X698500Y133350D01*
X698500Y146050D01*
X704850Y152400D01*
X717550Y152400D02*
X723900Y146050D01*
X723900Y133350D01*
X717550Y127000D01*
X717550Y152400D02*
X704850Y152400D01*
D11*
X705485Y67310D02*
X708025Y64135D01*
X705485Y67310D02*
X716915Y67310D01*
X716915Y64135D02*
X716915Y70485D01*
X755015Y108585D02*
X755115Y108583D01*
X755214Y108577D01*
X755314Y108567D01*
X755412Y108554D01*
X755511Y108536D01*
X755608Y108515D01*
X755704Y108490D01*
X755800Y108461D01*
X755894Y108428D01*
X755987Y108392D01*
X756078Y108352D01*
X756168Y108308D01*
X756256Y108261D01*
X756342Y108211D01*
X756426Y108157D01*
X756508Y108100D01*
X756587Y108040D01*
X756665Y107976D01*
X756739Y107910D01*
X756811Y107841D01*
X756880Y107769D01*
X756946Y107695D01*
X757010Y107617D01*
X757070Y107538D01*
X757127Y107456D01*
X757181Y107372D01*
X757231Y107286D01*
X757278Y107198D01*
X757322Y107108D01*
X757362Y107017D01*
X757398Y106924D01*
X757431Y106830D01*
X757460Y106734D01*
X757485Y106638D01*
X757506Y106541D01*
X757524Y106442D01*
X757537Y106344D01*
X757547Y106244D01*
X757553Y106145D01*
X757555Y106045D01*
X757553Y105904D01*
X757548Y105763D01*
X757538Y105622D01*
X757525Y105481D01*
X757509Y105341D01*
X757488Y105201D01*
X757464Y105062D01*
X757436Y104923D01*
X757405Y104786D01*
X757370Y104649D01*
X757332Y104513D01*
X757290Y104378D01*
X757244Y104245D01*
X757195Y104112D01*
X757142Y103981D01*
X757086Y103852D01*
X757027Y103723D01*
X756964Y103597D01*
X756898Y103472D01*
X756829Y103349D01*
X756756Y103228D01*
X756680Y103109D01*
X756601Y102991D01*
X756520Y102876D01*
X756435Y102764D01*
X756347Y102653D01*
X756256Y102545D01*
X756163Y102439D01*
X756066Y102336D01*
X755967Y102235D01*
X748665Y102553D02*
X748565Y102555D01*
X748466Y102561D01*
X748366Y102571D01*
X748268Y102584D01*
X748169Y102602D01*
X748072Y102623D01*
X747976Y102648D01*
X747880Y102677D01*
X747786Y102710D01*
X747693Y102746D01*
X747602Y102786D01*
X747512Y102830D01*
X747424Y102877D01*
X747338Y102927D01*
X747254Y102981D01*
X747172Y103038D01*
X747093Y103098D01*
X747015Y103162D01*
X746941Y103228D01*
X746869Y103297D01*
X746800Y103369D01*
X746734Y103443D01*
X746670Y103521D01*
X746610Y103600D01*
X746553Y103682D01*
X746499Y103766D01*
X746449Y103852D01*
X746402Y103940D01*
X746358Y104030D01*
X746318Y104121D01*
X746282Y104214D01*
X746249Y104308D01*
X746220Y104404D01*
X746195Y104500D01*
X746174Y104597D01*
X746156Y104696D01*
X746143Y104794D01*
X746133Y104894D01*
X746127Y104993D01*
X746125Y105093D01*
X746127Y105226D01*
X746132Y105359D01*
X746142Y105492D01*
X746155Y105625D01*
X746172Y105757D01*
X746192Y105889D01*
X746216Y106020D01*
X746244Y106150D01*
X746275Y106280D01*
X746310Y106408D01*
X746349Y106536D01*
X746391Y106662D01*
X746437Y106787D01*
X746486Y106911D01*
X746538Y107034D01*
X746594Y107155D01*
X746654Y107274D01*
X746716Y107392D01*
X746782Y107507D01*
X746851Y107621D01*
X746924Y107733D01*
X746999Y107843D01*
X747078Y107951D01*
X750888Y103822D02*
X750836Y103738D01*
X750781Y103655D01*
X750722Y103575D01*
X750661Y103497D01*
X750597Y103422D01*
X750529Y103349D01*
X750459Y103278D01*
X750387Y103211D01*
X750312Y103146D01*
X750234Y103084D01*
X750154Y103025D01*
X750072Y102969D01*
X749988Y102917D01*
X749902Y102868D01*
X749814Y102822D01*
X749724Y102779D01*
X749633Y102740D01*
X749540Y102705D01*
X749446Y102673D01*
X749351Y102645D01*
X749255Y102620D01*
X749158Y102600D01*
X749060Y102582D01*
X748962Y102569D01*
X748863Y102560D01*
X748764Y102554D01*
X748665Y102552D01*
X752792Y107315D02*
X752844Y107399D01*
X752899Y107482D01*
X752958Y107562D01*
X753019Y107640D01*
X753083Y107715D01*
X753151Y107788D01*
X753221Y107859D01*
X753293Y107926D01*
X753368Y107991D01*
X753446Y108053D01*
X753526Y108112D01*
X753608Y108168D01*
X753692Y108220D01*
X753778Y108269D01*
X753866Y108315D01*
X753956Y108358D01*
X754047Y108397D01*
X754140Y108432D01*
X754234Y108464D01*
X754329Y108492D01*
X754425Y108517D01*
X754522Y108537D01*
X754620Y108555D01*
X754718Y108568D01*
X754817Y108577D01*
X754916Y108583D01*
X755015Y108585D01*
X752793Y107315D02*
X750888Y103823D01*
X746125Y112649D02*
X757555Y116459D01*
X746125Y120269D01*
X746125Y128207D02*
X746127Y128311D01*
X746133Y128416D01*
X746142Y128520D01*
X746155Y128623D01*
X746173Y128726D01*
X746193Y128828D01*
X746218Y128930D01*
X746246Y129030D01*
X746278Y129130D01*
X746314Y129228D01*
X746353Y129325D01*
X746395Y129420D01*
X746441Y129514D01*
X746491Y129606D01*
X746543Y129696D01*
X746599Y129784D01*
X746659Y129870D01*
X746721Y129954D01*
X746786Y130035D01*
X746854Y130114D01*
X746926Y130191D01*
X746999Y130264D01*
X747076Y130336D01*
X747155Y130404D01*
X747236Y130469D01*
X747320Y130531D01*
X747406Y130591D01*
X747494Y130647D01*
X747584Y130699D01*
X747676Y130749D01*
X747770Y130795D01*
X747865Y130837D01*
X747962Y130876D01*
X748060Y130912D01*
X748160Y130944D01*
X748260Y130972D01*
X748362Y130997D01*
X748464Y131017D01*
X748567Y131035D01*
X748670Y131048D01*
X748774Y131057D01*
X748879Y131063D01*
X748983Y131065D01*
X746125Y128207D02*
X746127Y128089D01*
X746133Y127970D01*
X746142Y127852D01*
X746155Y127735D01*
X746173Y127618D01*
X746193Y127501D01*
X746218Y127385D01*
X746246Y127270D01*
X746279Y127157D01*
X746314Y127044D01*
X746354Y126932D01*
X746396Y126822D01*
X746443Y126713D01*
X746493Y126605D01*
X746546Y126500D01*
X746603Y126396D01*
X746663Y126294D01*
X746726Y126194D01*
X746793Y126096D01*
X746862Y126000D01*
X746935Y125907D01*
X747011Y125816D01*
X747089Y125727D01*
X747171Y125641D01*
X747255Y125558D01*
X747341Y125477D01*
X747431Y125400D01*
X747522Y125325D01*
X747616Y125253D01*
X747713Y125184D01*
X747811Y125119D01*
X747912Y125056D01*
X748015Y124997D01*
X748119Y124941D01*
X748225Y124889D01*
X748333Y124840D01*
X748442Y124795D01*
X748553Y124753D01*
X748665Y124715D01*
X751205Y130112D02*
X751130Y130188D01*
X751051Y130263D01*
X750970Y130334D01*
X750886Y130403D01*
X750800Y130468D01*
X750712Y130530D01*
X750622Y130590D01*
X750530Y130646D01*
X750435Y130699D01*
X750339Y130748D01*
X750241Y130794D01*
X750142Y130837D01*
X750041Y130876D01*
X749939Y130911D01*
X749836Y130943D01*
X749732Y130971D01*
X749627Y130996D01*
X749520Y131017D01*
X749414Y131034D01*
X749307Y131047D01*
X749199Y131056D01*
X749091Y131062D01*
X748983Y131064D01*
X751205Y130112D02*
X757555Y124714D01*
X757555Y131064D01*
D10*
X762000Y215900D02*
X736600Y215900D01*
X762000Y215900D02*
X762000Y238760D01*
X759460Y241300D01*
X762000Y243840D01*
X762000Y264160D01*
X759460Y266700D01*
X762000Y269240D01*
X762000Y289560D01*
X759460Y292100D01*
X762000Y294640D01*
X762000Y314960D01*
X759460Y317500D01*
X762000Y320040D01*
X739140Y317500D02*
X736600Y320040D01*
X739140Y317500D02*
X736600Y314960D01*
X736600Y294640D01*
X739140Y292100D01*
X736600Y289560D01*
X736600Y269240D01*
X739140Y266700D01*
X736600Y264160D01*
X736600Y243840D01*
X739140Y241300D01*
X736600Y238760D01*
X736600Y215900D01*
X762000Y320040D02*
X762000Y340360D01*
X759460Y342900D01*
X762000Y345440D01*
X762000Y365760D01*
X759460Y368300D01*
X762000Y370840D01*
X739140Y368300D02*
X736600Y370840D01*
X739140Y368300D02*
X736600Y365760D01*
X736600Y345440D01*
X739140Y342900D01*
X736600Y340360D01*
X736600Y320040D01*
X736600Y396240D02*
X736600Y419100D01*
X762000Y419100D01*
X762000Y396240D01*
X739140Y393700D02*
X736600Y391160D01*
X739140Y393700D02*
X736600Y396240D01*
X736600Y391160D02*
X736600Y370840D01*
X759460Y393700D02*
X762000Y396240D01*
X759460Y393700D02*
X762000Y391160D01*
X762000Y370840D01*
D11*
X721995Y227330D02*
X724535Y224155D01*
X721995Y227330D02*
X733425Y227330D01*
X733425Y224155D02*
X733425Y230505D01*
X730250Y401955D02*
X730139Y401957D01*
X730029Y401963D01*
X729918Y401972D01*
X729808Y401986D01*
X729699Y402003D01*
X729590Y402024D01*
X729482Y402049D01*
X729375Y402078D01*
X729269Y402110D01*
X729164Y402146D01*
X729061Y402186D01*
X728959Y402229D01*
X728858Y402276D01*
X728759Y402327D01*
X728663Y402380D01*
X728568Y402437D01*
X728475Y402498D01*
X728384Y402561D01*
X728295Y402628D01*
X728209Y402698D01*
X728126Y402771D01*
X728044Y402846D01*
X727966Y402924D01*
X727891Y403006D01*
X727818Y403089D01*
X727748Y403175D01*
X727681Y403264D01*
X727618Y403355D01*
X727557Y403448D01*
X727500Y403543D01*
X727447Y403639D01*
X727396Y403738D01*
X727349Y403839D01*
X727306Y403941D01*
X727266Y404044D01*
X727230Y404149D01*
X727198Y404255D01*
X727169Y404362D01*
X727144Y404470D01*
X727123Y404579D01*
X727106Y404688D01*
X727092Y404798D01*
X727083Y404909D01*
X727077Y405019D01*
X727075Y405130D01*
X727077Y405241D01*
X727083Y405351D01*
X727092Y405462D01*
X727106Y405572D01*
X727123Y405681D01*
X727144Y405790D01*
X727169Y405898D01*
X727198Y406005D01*
X727230Y406111D01*
X727266Y406216D01*
X727306Y406319D01*
X727349Y406421D01*
X727396Y406522D01*
X727447Y406621D01*
X727500Y406718D01*
X727557Y406812D01*
X727618Y406905D01*
X727681Y406996D01*
X727748Y407085D01*
X727818Y407171D01*
X727891Y407254D01*
X727966Y407336D01*
X728044Y407414D01*
X728126Y407489D01*
X728209Y407562D01*
X728295Y407632D01*
X728384Y407699D01*
X728475Y407762D01*
X728568Y407823D01*
X728663Y407880D01*
X728759Y407933D01*
X728858Y407984D01*
X728959Y408031D01*
X729061Y408074D01*
X729164Y408114D01*
X729269Y408150D01*
X729375Y408182D01*
X729482Y408211D01*
X729590Y408236D01*
X729699Y408257D01*
X729808Y408274D01*
X729918Y408288D01*
X730029Y408297D01*
X730139Y408303D01*
X730250Y408305D01*
X730361Y408303D01*
X730471Y408297D01*
X730582Y408288D01*
X730692Y408274D01*
X730801Y408257D01*
X730910Y408236D01*
X731018Y408211D01*
X731125Y408182D01*
X731231Y408150D01*
X731336Y408114D01*
X731439Y408074D01*
X731541Y408031D01*
X731642Y407984D01*
X731741Y407933D01*
X731838Y407880D01*
X731932Y407823D01*
X732025Y407762D01*
X732116Y407699D01*
X732205Y407632D01*
X732291Y407562D01*
X732374Y407489D01*
X732456Y407414D01*
X732534Y407336D01*
X732609Y407254D01*
X732682Y407171D01*
X732752Y407085D01*
X732819Y406996D01*
X732882Y406905D01*
X732943Y406812D01*
X733000Y406717D01*
X733053Y406621D01*
X733104Y406522D01*
X733151Y406421D01*
X733194Y406319D01*
X733234Y406216D01*
X733270Y406111D01*
X733302Y406005D01*
X733331Y405898D01*
X733356Y405790D01*
X733377Y405681D01*
X733394Y405572D01*
X733408Y405462D01*
X733417Y405351D01*
X733423Y405241D01*
X733425Y405130D01*
X733423Y405019D01*
X733417Y404909D01*
X733408Y404798D01*
X733394Y404688D01*
X733377Y404579D01*
X733356Y404470D01*
X733331Y404362D01*
X733302Y404255D01*
X733270Y404149D01*
X733234Y404044D01*
X733194Y403941D01*
X733151Y403839D01*
X733104Y403738D01*
X733053Y403639D01*
X733000Y403542D01*
X732943Y403448D01*
X732882Y403355D01*
X732819Y403264D01*
X732752Y403175D01*
X732682Y403089D01*
X732609Y403006D01*
X732534Y402924D01*
X732456Y402846D01*
X732374Y402771D01*
X732291Y402698D01*
X732205Y402628D01*
X732116Y402561D01*
X732025Y402498D01*
X731932Y402437D01*
X731838Y402380D01*
X731741Y402327D01*
X731642Y402276D01*
X731541Y402229D01*
X731439Y402186D01*
X731336Y402146D01*
X731231Y402110D01*
X731125Y402078D01*
X731018Y402049D01*
X730910Y402024D01*
X730801Y402003D01*
X730692Y401986D01*
X730582Y401972D01*
X730471Y401963D01*
X730361Y401957D01*
X730250Y401955D01*
X724535Y402590D02*
X724435Y402592D01*
X724336Y402598D01*
X724236Y402608D01*
X724138Y402621D01*
X724039Y402639D01*
X723942Y402660D01*
X723846Y402685D01*
X723750Y402714D01*
X723656Y402747D01*
X723563Y402783D01*
X723472Y402823D01*
X723382Y402867D01*
X723294Y402914D01*
X723208Y402964D01*
X723124Y403018D01*
X723042Y403075D01*
X722963Y403135D01*
X722885Y403199D01*
X722811Y403265D01*
X722739Y403334D01*
X722670Y403406D01*
X722604Y403480D01*
X722540Y403558D01*
X722480Y403637D01*
X722423Y403719D01*
X722369Y403803D01*
X722319Y403889D01*
X722272Y403977D01*
X722228Y404067D01*
X722188Y404158D01*
X722152Y404251D01*
X722119Y404345D01*
X722090Y404441D01*
X722065Y404537D01*
X722044Y404634D01*
X722026Y404733D01*
X722013Y404831D01*
X722003Y404931D01*
X721997Y405030D01*
X721995Y405130D01*
X721997Y405230D01*
X722003Y405329D01*
X722013Y405429D01*
X722026Y405527D01*
X722044Y405626D01*
X722065Y405723D01*
X722090Y405819D01*
X722119Y405915D01*
X722152Y406009D01*
X722188Y406102D01*
X722228Y406193D01*
X722272Y406283D01*
X722319Y406371D01*
X722369Y406457D01*
X722423Y406541D01*
X722480Y406623D01*
X722540Y406702D01*
X722604Y406780D01*
X722670Y406854D01*
X722739Y406926D01*
X722811Y406995D01*
X722885Y407061D01*
X722963Y407125D01*
X723042Y407185D01*
X723124Y407242D01*
X723208Y407296D01*
X723294Y407346D01*
X723382Y407393D01*
X723472Y407437D01*
X723563Y407477D01*
X723656Y407513D01*
X723750Y407546D01*
X723846Y407575D01*
X723942Y407600D01*
X724039Y407621D01*
X724138Y407639D01*
X724236Y407652D01*
X724336Y407662D01*
X724435Y407668D01*
X724535Y407670D01*
X724635Y407668D01*
X724734Y407662D01*
X724834Y407652D01*
X724932Y407639D01*
X725031Y407621D01*
X725128Y407600D01*
X725224Y407575D01*
X725320Y407546D01*
X725414Y407513D01*
X725507Y407477D01*
X725598Y407437D01*
X725688Y407393D01*
X725776Y407346D01*
X725862Y407296D01*
X725946Y407242D01*
X726028Y407185D01*
X726107Y407125D01*
X726185Y407061D01*
X726259Y406995D01*
X726331Y406926D01*
X726400Y406854D01*
X726466Y406780D01*
X726530Y406702D01*
X726590Y406623D01*
X726647Y406541D01*
X726701Y406457D01*
X726751Y406371D01*
X726798Y406283D01*
X726842Y406193D01*
X726882Y406102D01*
X726918Y406009D01*
X726951Y405915D01*
X726980Y405819D01*
X727005Y405723D01*
X727026Y405626D01*
X727044Y405527D01*
X727057Y405429D01*
X727067Y405329D01*
X727073Y405230D01*
X727075Y405130D01*
X727073Y405030D01*
X727067Y404931D01*
X727057Y404831D01*
X727044Y404733D01*
X727026Y404634D01*
X727005Y404537D01*
X726980Y404441D01*
X726951Y404345D01*
X726918Y404251D01*
X726882Y404158D01*
X726842Y404067D01*
X726798Y403977D01*
X726751Y403889D01*
X726701Y403803D01*
X726647Y403719D01*
X726590Y403637D01*
X726530Y403558D01*
X726466Y403480D01*
X726400Y403406D01*
X726331Y403334D01*
X726259Y403265D01*
X726185Y403199D01*
X726107Y403135D01*
X726028Y403075D01*
X725946Y403018D01*
X725862Y402964D01*
X725776Y402914D01*
X725688Y402867D01*
X725598Y402823D01*
X725507Y402783D01*
X725414Y402747D01*
X725320Y402714D01*
X725224Y402685D01*
X725128Y402660D01*
X725031Y402639D01*
X724932Y402621D01*
X724834Y402608D01*
X724734Y402598D01*
X724635Y402592D01*
X724535Y402590D01*
X729615Y260985D02*
X729715Y260983D01*
X729814Y260977D01*
X729914Y260967D01*
X730012Y260954D01*
X730111Y260936D01*
X730208Y260915D01*
X730304Y260890D01*
X730400Y260861D01*
X730494Y260828D01*
X730587Y260792D01*
X730678Y260752D01*
X730768Y260708D01*
X730856Y260661D01*
X730942Y260611D01*
X731026Y260557D01*
X731108Y260500D01*
X731187Y260440D01*
X731265Y260376D01*
X731339Y260310D01*
X731411Y260241D01*
X731480Y260169D01*
X731546Y260095D01*
X731610Y260017D01*
X731670Y259938D01*
X731727Y259856D01*
X731781Y259772D01*
X731831Y259686D01*
X731878Y259598D01*
X731922Y259508D01*
X731962Y259417D01*
X731998Y259324D01*
X732031Y259230D01*
X732060Y259134D01*
X732085Y259038D01*
X732106Y258941D01*
X732124Y258842D01*
X732137Y258744D01*
X732147Y258644D01*
X732153Y258545D01*
X732155Y258445D01*
X732153Y258304D01*
X732148Y258163D01*
X732138Y258022D01*
X732125Y257881D01*
X732109Y257741D01*
X732088Y257601D01*
X732064Y257462D01*
X732036Y257323D01*
X732005Y257186D01*
X731970Y257049D01*
X731932Y256913D01*
X731890Y256778D01*
X731844Y256645D01*
X731795Y256512D01*
X731742Y256381D01*
X731686Y256252D01*
X731627Y256123D01*
X731564Y255997D01*
X731498Y255872D01*
X731429Y255749D01*
X731356Y255628D01*
X731280Y255509D01*
X731201Y255391D01*
X731120Y255276D01*
X731035Y255164D01*
X730947Y255053D01*
X730856Y254945D01*
X730763Y254839D01*
X730666Y254736D01*
X730567Y254635D01*
X723265Y254953D02*
X723165Y254955D01*
X723066Y254961D01*
X722966Y254971D01*
X722868Y254984D01*
X722769Y255002D01*
X722672Y255023D01*
X722576Y255048D01*
X722480Y255077D01*
X722386Y255110D01*
X722293Y255146D01*
X722202Y255186D01*
X722112Y255230D01*
X722024Y255277D01*
X721938Y255327D01*
X721854Y255381D01*
X721772Y255438D01*
X721693Y255498D01*
X721615Y255562D01*
X721541Y255628D01*
X721469Y255697D01*
X721400Y255769D01*
X721334Y255843D01*
X721270Y255921D01*
X721210Y256000D01*
X721153Y256082D01*
X721099Y256166D01*
X721049Y256252D01*
X721002Y256340D01*
X720958Y256430D01*
X720918Y256521D01*
X720882Y256614D01*
X720849Y256708D01*
X720820Y256804D01*
X720795Y256900D01*
X720774Y256997D01*
X720756Y257096D01*
X720743Y257194D01*
X720733Y257294D01*
X720727Y257393D01*
X720725Y257493D01*
X720727Y257626D01*
X720732Y257759D01*
X720742Y257892D01*
X720755Y258025D01*
X720772Y258157D01*
X720792Y258289D01*
X720816Y258420D01*
X720844Y258550D01*
X720875Y258680D01*
X720910Y258808D01*
X720949Y258936D01*
X720991Y259062D01*
X721037Y259187D01*
X721086Y259311D01*
X721138Y259434D01*
X721194Y259555D01*
X721254Y259674D01*
X721316Y259792D01*
X721382Y259907D01*
X721451Y260021D01*
X721524Y260133D01*
X721599Y260243D01*
X721678Y260351D01*
X725488Y256222D02*
X725436Y256138D01*
X725381Y256055D01*
X725322Y255975D01*
X725261Y255897D01*
X725197Y255822D01*
X725129Y255749D01*
X725059Y255678D01*
X724987Y255611D01*
X724912Y255546D01*
X724834Y255484D01*
X724754Y255425D01*
X724672Y255369D01*
X724588Y255317D01*
X724502Y255268D01*
X724414Y255222D01*
X724324Y255179D01*
X724233Y255140D01*
X724140Y255105D01*
X724046Y255073D01*
X723951Y255045D01*
X723855Y255020D01*
X723758Y255000D01*
X723660Y254982D01*
X723562Y254969D01*
X723463Y254960D01*
X723364Y254954D01*
X723265Y254952D01*
X727392Y259715D02*
X727444Y259799D01*
X727499Y259882D01*
X727558Y259962D01*
X727619Y260040D01*
X727683Y260115D01*
X727751Y260188D01*
X727821Y260259D01*
X727893Y260326D01*
X727968Y260391D01*
X728046Y260453D01*
X728126Y260512D01*
X728208Y260568D01*
X728292Y260620D01*
X728378Y260669D01*
X728466Y260715D01*
X728556Y260758D01*
X728647Y260797D01*
X728740Y260832D01*
X728834Y260864D01*
X728929Y260892D01*
X729025Y260917D01*
X729122Y260937D01*
X729220Y260955D01*
X729318Y260968D01*
X729417Y260977D01*
X729516Y260983D01*
X729615Y260985D01*
X727393Y259715D02*
X725488Y256223D01*
X720725Y265049D02*
X732155Y268859D01*
X720725Y272669D01*
X732155Y277114D02*
X732155Y280289D01*
X732153Y280400D01*
X732147Y280510D01*
X732138Y280621D01*
X732124Y280731D01*
X732107Y280840D01*
X732086Y280949D01*
X732061Y281057D01*
X732032Y281164D01*
X732000Y281270D01*
X731964Y281375D01*
X731924Y281478D01*
X731881Y281580D01*
X731834Y281681D01*
X731783Y281780D01*
X731730Y281877D01*
X731673Y281971D01*
X731612Y282064D01*
X731549Y282155D01*
X731482Y282244D01*
X731412Y282330D01*
X731339Y282413D01*
X731264Y282495D01*
X731186Y282573D01*
X731104Y282648D01*
X731021Y282721D01*
X730935Y282791D01*
X730846Y282858D01*
X730755Y282921D01*
X730662Y282982D01*
X730568Y283039D01*
X730471Y283092D01*
X730372Y283143D01*
X730271Y283190D01*
X730169Y283233D01*
X730066Y283273D01*
X729961Y283309D01*
X729855Y283341D01*
X729748Y283370D01*
X729640Y283395D01*
X729531Y283416D01*
X729422Y283433D01*
X729312Y283447D01*
X729201Y283456D01*
X729091Y283462D01*
X728980Y283464D01*
X728869Y283462D01*
X728759Y283456D01*
X728648Y283447D01*
X728538Y283433D01*
X728429Y283416D01*
X728320Y283395D01*
X728212Y283370D01*
X728105Y283341D01*
X727999Y283309D01*
X727894Y283273D01*
X727791Y283233D01*
X727689Y283190D01*
X727588Y283143D01*
X727489Y283092D01*
X727393Y283039D01*
X727298Y282982D01*
X727205Y282921D01*
X727114Y282858D01*
X727025Y282791D01*
X726939Y282721D01*
X726856Y282648D01*
X726774Y282573D01*
X726696Y282495D01*
X726621Y282413D01*
X726548Y282330D01*
X726478Y282244D01*
X726411Y282155D01*
X726348Y282064D01*
X726287Y281971D01*
X726230Y281877D01*
X726177Y281780D01*
X726126Y281681D01*
X726079Y281580D01*
X726036Y281478D01*
X725996Y281375D01*
X725960Y281270D01*
X725928Y281164D01*
X725899Y281057D01*
X725874Y280949D01*
X725853Y280840D01*
X725836Y280731D01*
X725822Y280621D01*
X725813Y280510D01*
X725807Y280400D01*
X725805Y280289D01*
X720725Y280924D02*
X720725Y277114D01*
X720725Y280924D02*
X720727Y281024D01*
X720733Y281123D01*
X720743Y281223D01*
X720756Y281321D01*
X720774Y281420D01*
X720795Y281517D01*
X720820Y281613D01*
X720849Y281709D01*
X720882Y281803D01*
X720918Y281896D01*
X720958Y281987D01*
X721002Y282077D01*
X721049Y282165D01*
X721099Y282251D01*
X721153Y282335D01*
X721210Y282417D01*
X721270Y282496D01*
X721334Y282574D01*
X721400Y282648D01*
X721469Y282720D01*
X721541Y282789D01*
X721615Y282855D01*
X721693Y282919D01*
X721772Y282979D01*
X721854Y283036D01*
X721938Y283090D01*
X722024Y283140D01*
X722112Y283187D01*
X722202Y283231D01*
X722293Y283271D01*
X722386Y283307D01*
X722480Y283340D01*
X722576Y283369D01*
X722672Y283394D01*
X722769Y283415D01*
X722868Y283433D01*
X722966Y283446D01*
X723066Y283456D01*
X723165Y283462D01*
X723265Y283464D01*
X723365Y283462D01*
X723464Y283456D01*
X723564Y283446D01*
X723662Y283433D01*
X723761Y283415D01*
X723858Y283394D01*
X723954Y283369D01*
X724050Y283340D01*
X724144Y283307D01*
X724237Y283271D01*
X724328Y283231D01*
X724418Y283187D01*
X724506Y283140D01*
X724592Y283090D01*
X724676Y283036D01*
X724758Y282979D01*
X724837Y282919D01*
X724915Y282855D01*
X724989Y282789D01*
X725061Y282720D01*
X725130Y282648D01*
X725196Y282574D01*
X725260Y282496D01*
X725320Y282417D01*
X725377Y282335D01*
X725431Y282251D01*
X725481Y282165D01*
X725528Y282077D01*
X725572Y281987D01*
X725612Y281896D01*
X725648Y281803D01*
X725681Y281709D01*
X725710Y281613D01*
X725735Y281517D01*
X725756Y281420D01*
X725774Y281321D01*
X725787Y281223D01*
X725797Y281123D01*
X725803Y281024D01*
X725805Y280924D01*
X725805Y278384D01*
D12*
X339146Y337058D02*
X330708Y337058D01*
X339146Y337058D02*
X339259Y337060D01*
X339372Y337066D01*
X339485Y337076D01*
X339598Y337090D01*
X339710Y337107D01*
X339821Y337129D01*
X339931Y337154D01*
X340041Y337184D01*
X340149Y337217D01*
X340256Y337254D01*
X340362Y337294D01*
X340466Y337339D01*
X340569Y337387D01*
X340670Y337438D01*
X340769Y337493D01*
X340866Y337551D01*
X340961Y337613D01*
X341054Y337678D01*
X341144Y337746D01*
X341232Y337817D01*
X341318Y337892D01*
X341401Y337969D01*
X341481Y338049D01*
X341558Y338132D01*
X341633Y338218D01*
X341704Y338306D01*
X341772Y338396D01*
X341837Y338489D01*
X341899Y338584D01*
X341957Y338681D01*
X342012Y338780D01*
X342063Y338881D01*
X342111Y338984D01*
X342156Y339088D01*
X342196Y339194D01*
X342233Y339301D01*
X342266Y339409D01*
X342296Y339519D01*
X342321Y339629D01*
X342343Y339740D01*
X342360Y339852D01*
X342374Y339965D01*
X342384Y340078D01*
X342390Y340191D01*
X342392Y340304D01*
X342390Y340417D01*
X342384Y340530D01*
X342374Y340643D01*
X342360Y340756D01*
X342343Y340868D01*
X342321Y340979D01*
X342296Y341089D01*
X342266Y341199D01*
X342233Y341307D01*
X342196Y341414D01*
X342156Y341520D01*
X342111Y341624D01*
X342063Y341727D01*
X342012Y341828D01*
X341957Y341927D01*
X341899Y342024D01*
X341837Y342119D01*
X341772Y342212D01*
X341704Y342302D01*
X341633Y342390D01*
X341558Y342476D01*
X341481Y342559D01*
X341401Y342639D01*
X341318Y342716D01*
X341232Y342791D01*
X341144Y342862D01*
X341054Y342930D01*
X340961Y342995D01*
X340866Y343057D01*
X340769Y343115D01*
X340670Y343170D01*
X340569Y343221D01*
X340466Y343269D01*
X340362Y343314D01*
X340256Y343354D01*
X340149Y343391D01*
X340041Y343424D01*
X339931Y343454D01*
X339821Y343479D01*
X339710Y343501D01*
X339598Y343518D01*
X339485Y343532D01*
X339372Y343542D01*
X339259Y343548D01*
X339146Y343550D01*
X339146Y343549D02*
X330708Y343549D01*
X330708Y351353D02*
X342392Y351353D01*
X336550Y351353D02*
X335576Y349730D01*
X335577Y349729D02*
X335530Y349656D01*
X335481Y349585D01*
X335428Y349516D01*
X335372Y349449D01*
X335313Y349385D01*
X335252Y349323D01*
X335188Y349265D01*
X335121Y349209D01*
X335052Y349157D01*
X334980Y349107D01*
X334906Y349061D01*
X334831Y349018D01*
X334753Y348979D01*
X334674Y348943D01*
X334593Y348911D01*
X334511Y348882D01*
X334428Y348857D01*
X334344Y348836D01*
X334259Y348819D01*
X334173Y348805D01*
X334087Y348796D01*
X334000Y348790D01*
X333913Y348788D01*
X333826Y348790D01*
X333739Y348796D01*
X333653Y348806D01*
X333567Y348819D01*
X333482Y348837D01*
X333398Y348858D01*
X333315Y348883D01*
X333232Y348912D01*
X333152Y348944D01*
X333073Y348980D01*
X332995Y349019D01*
X332920Y349062D01*
X332846Y349109D01*
X332775Y349158D01*
X332705Y349211D01*
X332639Y349266D01*
X332575Y349325D01*
X332513Y349386D01*
X332454Y349450D01*
X332399Y349517D01*
X332346Y349586D01*
X332296Y349658D01*
X332250Y349731D01*
X332207Y349807D01*
X332168Y349884D01*
X332132Y349963D01*
X332099Y350044D01*
X332071Y350126D01*
X332045Y350209D01*
X332024Y350293D01*
X332007Y350378D01*
X332006Y350379D02*
X331982Y350519D01*
X331962Y350661D01*
X331946Y350802D01*
X331935Y350944D01*
X331927Y351087D01*
X331923Y351229D01*
X331922Y351372D01*
X331926Y351515D01*
X331934Y351657D01*
X331946Y351799D01*
X331962Y351941D01*
X331981Y352082D01*
X332005Y352223D01*
X332032Y352363D01*
X332064Y352502D01*
X332099Y352640D01*
X332138Y352778D01*
X332181Y352914D01*
X332227Y353048D01*
X332278Y353182D01*
X332331Y353314D01*
X332389Y353444D01*
X332450Y353573D01*
X332515Y353700D01*
X332583Y353826D01*
X332655Y353949D01*
X336550Y351353D02*
X337524Y352975D01*
X337523Y352976D02*
X337570Y353049D01*
X337619Y353120D01*
X337672Y353190D01*
X337728Y353256D01*
X337787Y353320D01*
X337848Y353382D01*
X337912Y353440D01*
X337979Y353496D01*
X338048Y353548D01*
X338120Y353598D01*
X338194Y353644D01*
X338269Y353687D01*
X338347Y353726D01*
X338426Y353762D01*
X338507Y353794D01*
X338589Y353823D01*
X338672Y353848D01*
X338756Y353869D01*
X338841Y353886D01*
X338927Y353900D01*
X339014Y353909D01*
X339100Y353915D01*
X339187Y353917D01*
X339274Y353915D01*
X339361Y353909D01*
X339447Y353899D01*
X339533Y353886D01*
X339618Y353868D01*
X339702Y353847D01*
X339785Y353822D01*
X339868Y353793D01*
X339948Y353761D01*
X340027Y353725D01*
X340105Y353686D01*
X340180Y353643D01*
X340254Y353596D01*
X340325Y353547D01*
X340395Y353494D01*
X340461Y353439D01*
X340525Y353380D01*
X340587Y353319D01*
X340646Y353254D01*
X340701Y353188D01*
X340754Y353119D01*
X340804Y353047D01*
X340850Y352974D01*
X340893Y352898D01*
X340932Y352821D01*
X340968Y352742D01*
X341001Y352661D01*
X341029Y352579D01*
X341055Y352496D01*
X341076Y352412D01*
X341093Y352326D01*
X341094Y352326D02*
X341118Y352186D01*
X341138Y352044D01*
X341154Y351903D01*
X341165Y351761D01*
X341173Y351618D01*
X341177Y351476D01*
X341178Y351333D01*
X341174Y351190D01*
X341166Y351048D01*
X341154Y350906D01*
X341138Y350764D01*
X341119Y350623D01*
X341095Y350482D01*
X341068Y350342D01*
X341036Y350203D01*
X341001Y350065D01*
X340962Y349927D01*
X340919Y349791D01*
X340873Y349657D01*
X340822Y349523D01*
X340769Y349391D01*
X340711Y349261D01*
X340650Y349132D01*
X340585Y349005D01*
X340517Y348879D01*
X340445Y348756D01*
X333304Y358775D02*
X330708Y362021D01*
X342392Y362021D01*
X342392Y365266D02*
X342392Y358775D01*
D10*
X63500Y355600D02*
X63500Y330200D01*
X86360Y330200D01*
X88900Y332740D01*
X91440Y330200D01*
X111760Y330200D01*
X114300Y332740D01*
X116840Y330200D01*
X137160Y330200D01*
X139700Y332740D01*
X142240Y330200D01*
X162560Y330200D01*
X165100Y332740D01*
X167640Y330200D01*
X190500Y330200D01*
X190500Y355600D01*
X167640Y355600D01*
X165100Y353060D01*
X162560Y355600D01*
X142240Y355600D01*
X139700Y353060D01*
X137160Y355600D01*
X116840Y355600D01*
X114300Y353060D01*
X111760Y355600D01*
X91440Y355600D01*
X88900Y353060D01*
X86360Y355600D01*
X63500Y355600D01*
D11*
X55880Y348615D02*
X52705Y346075D01*
X55880Y348615D02*
X55880Y337185D01*
X52705Y337185D02*
X59055Y337185D01*
X193675Y337185D02*
X197485Y337185D01*
X197585Y337187D01*
X197684Y337193D01*
X197784Y337203D01*
X197882Y337216D01*
X197981Y337234D01*
X198078Y337255D01*
X198174Y337280D01*
X198270Y337309D01*
X198364Y337342D01*
X198457Y337378D01*
X198548Y337418D01*
X198638Y337462D01*
X198726Y337509D01*
X198812Y337559D01*
X198896Y337613D01*
X198978Y337670D01*
X199057Y337730D01*
X199135Y337794D01*
X199209Y337860D01*
X199281Y337929D01*
X199350Y338001D01*
X199416Y338075D01*
X199480Y338153D01*
X199540Y338232D01*
X199597Y338314D01*
X199651Y338398D01*
X199701Y338484D01*
X199748Y338572D01*
X199792Y338662D01*
X199832Y338753D01*
X199868Y338846D01*
X199901Y338940D01*
X199930Y339036D01*
X199955Y339132D01*
X199976Y339229D01*
X199994Y339328D01*
X200007Y339426D01*
X200017Y339526D01*
X200023Y339625D01*
X200025Y339725D01*
X200025Y340995D01*
X200023Y341095D01*
X200017Y341194D01*
X200007Y341294D01*
X199994Y341392D01*
X199976Y341491D01*
X199955Y341588D01*
X199930Y341684D01*
X199901Y341780D01*
X199868Y341874D01*
X199832Y341967D01*
X199792Y342058D01*
X199748Y342148D01*
X199701Y342236D01*
X199651Y342322D01*
X199597Y342406D01*
X199540Y342488D01*
X199480Y342567D01*
X199416Y342645D01*
X199350Y342719D01*
X199281Y342791D01*
X199209Y342860D01*
X199135Y342926D01*
X199057Y342990D01*
X198978Y343050D01*
X198896Y343107D01*
X198812Y343161D01*
X198726Y343211D01*
X198638Y343258D01*
X198548Y343302D01*
X198457Y343342D01*
X198364Y343378D01*
X198270Y343411D01*
X198174Y343440D01*
X198078Y343465D01*
X197981Y343486D01*
X197882Y343504D01*
X197784Y343517D01*
X197684Y343527D01*
X197585Y343533D01*
X197485Y343535D01*
X193675Y343535D01*
X193675Y348615D01*
X200025Y348615D01*
X64135Y363220D02*
X64135Y371475D01*
X64135Y363220D02*
X64137Y363109D01*
X64143Y362999D01*
X64152Y362888D01*
X64166Y362778D01*
X64183Y362669D01*
X64204Y362560D01*
X64229Y362452D01*
X64258Y362345D01*
X64290Y362239D01*
X64326Y362134D01*
X64366Y362031D01*
X64409Y361929D01*
X64456Y361828D01*
X64507Y361729D01*
X64560Y361633D01*
X64617Y361538D01*
X64678Y361445D01*
X64741Y361354D01*
X64808Y361265D01*
X64878Y361179D01*
X64951Y361096D01*
X65026Y361014D01*
X65104Y360936D01*
X65186Y360861D01*
X65269Y360788D01*
X65355Y360718D01*
X65444Y360651D01*
X65535Y360588D01*
X65628Y360527D01*
X65723Y360470D01*
X65819Y360417D01*
X65918Y360366D01*
X66019Y360319D01*
X66121Y360276D01*
X66224Y360236D01*
X66329Y360200D01*
X66435Y360168D01*
X66542Y360139D01*
X66650Y360114D01*
X66759Y360093D01*
X66868Y360076D01*
X66978Y360062D01*
X67089Y360053D01*
X67199Y360047D01*
X67310Y360045D01*
X67421Y360047D01*
X67531Y360053D01*
X67642Y360062D01*
X67752Y360076D01*
X67861Y360093D01*
X67970Y360114D01*
X68078Y360139D01*
X68185Y360168D01*
X68291Y360200D01*
X68396Y360236D01*
X68499Y360276D01*
X68601Y360319D01*
X68702Y360366D01*
X68801Y360417D01*
X68897Y360470D01*
X68992Y360527D01*
X69085Y360588D01*
X69176Y360651D01*
X69265Y360718D01*
X69351Y360788D01*
X69434Y360861D01*
X69516Y360936D01*
X69594Y361014D01*
X69669Y361096D01*
X69742Y361179D01*
X69812Y361265D01*
X69879Y361354D01*
X69942Y361445D01*
X70003Y361538D01*
X70060Y361632D01*
X70113Y361729D01*
X70164Y361828D01*
X70211Y361929D01*
X70254Y362031D01*
X70294Y362134D01*
X70330Y362239D01*
X70362Y362345D01*
X70391Y362452D01*
X70416Y362560D01*
X70437Y362669D01*
X70454Y362778D01*
X70468Y362888D01*
X70477Y362999D01*
X70483Y363109D01*
X70485Y363220D01*
X70485Y371475D01*
X78359Y371475D02*
X78359Y360045D01*
X78359Y365760D02*
X76772Y366713D01*
X76771Y366712D02*
X76698Y366759D01*
X76627Y366808D01*
X76558Y366861D01*
X76492Y366917D01*
X76428Y366976D01*
X76367Y367037D01*
X76309Y367101D01*
X76254Y367168D01*
X76202Y367238D01*
X76154Y367309D01*
X76108Y367383D01*
X76066Y367459D01*
X76028Y367537D01*
X75993Y367616D01*
X75962Y367697D01*
X75935Y367779D01*
X75911Y367862D01*
X75891Y367947D01*
X75875Y368032D01*
X75863Y368118D01*
X75855Y368204D01*
X75851Y368290D01*
X75850Y368377D01*
X75854Y368464D01*
X75862Y368550D01*
X75873Y368636D01*
X75889Y368721D01*
X75908Y368805D01*
X75931Y368889D01*
X75958Y368971D01*
X75989Y369052D01*
X76024Y369132D01*
X76061Y369209D01*
X76103Y369285D01*
X76148Y369360D01*
X76196Y369431D01*
X76248Y369501D01*
X76302Y369568D01*
X76360Y369633D01*
X76420Y369695D01*
X76484Y369754D01*
X76550Y369810D01*
X76618Y369864D01*
X76689Y369913D01*
X76762Y369960D01*
X76837Y370003D01*
X76914Y370043D01*
X76992Y370079D01*
X77073Y370112D01*
X77154Y370141D01*
X77237Y370166D01*
X77321Y370188D01*
X77406Y370205D01*
X77407Y370205D02*
X77544Y370228D01*
X77683Y370248D01*
X77821Y370263D01*
X77960Y370275D01*
X78100Y370283D01*
X78239Y370286D01*
X78379Y370287D01*
X78518Y370283D01*
X78657Y370275D01*
X78796Y370264D01*
X78935Y370248D01*
X79073Y370229D01*
X79211Y370206D01*
X79348Y370179D01*
X79484Y370148D01*
X79619Y370114D01*
X79753Y370076D01*
X79887Y370034D01*
X80018Y369988D01*
X80149Y369939D01*
X80278Y369886D01*
X80406Y369830D01*
X80532Y369770D01*
X80656Y369707D01*
X80779Y369640D01*
X80899Y369570D01*
X78359Y365760D02*
X79947Y364808D01*
X80020Y364761D01*
X80091Y364712D01*
X80160Y364659D01*
X80226Y364603D01*
X80290Y364544D01*
X80351Y364483D01*
X80409Y364419D01*
X80464Y364352D01*
X80516Y364282D01*
X80564Y364211D01*
X80610Y364137D01*
X80652Y364061D01*
X80690Y363983D01*
X80725Y363904D01*
X80756Y363823D01*
X80783Y363741D01*
X80807Y363658D01*
X80827Y363573D01*
X80843Y363488D01*
X80855Y363402D01*
X80863Y363316D01*
X80867Y363230D01*
X80868Y363143D01*
X80864Y363056D01*
X80856Y362970D01*
X80845Y362884D01*
X80829Y362799D01*
X80810Y362715D01*
X80787Y362631D01*
X80760Y362549D01*
X80729Y362468D01*
X80694Y362388D01*
X80657Y362311D01*
X80615Y362235D01*
X80570Y362160D01*
X80522Y362089D01*
X80470Y362019D01*
X80416Y361952D01*
X80358Y361887D01*
X80298Y361825D01*
X80234Y361766D01*
X80168Y361710D01*
X80100Y361656D01*
X80029Y361607D01*
X79956Y361560D01*
X79881Y361517D01*
X79804Y361477D01*
X79726Y361441D01*
X79645Y361408D01*
X79564Y361379D01*
X79481Y361354D01*
X79397Y361332D01*
X79312Y361315D01*
X79311Y361315D02*
X79174Y361292D01*
X79035Y361272D01*
X78897Y361257D01*
X78758Y361245D01*
X78618Y361237D01*
X78479Y361234D01*
X78339Y361233D01*
X78200Y361237D01*
X78061Y361245D01*
X77922Y361256D01*
X77783Y361272D01*
X77645Y361291D01*
X77507Y361314D01*
X77370Y361341D01*
X77234Y361372D01*
X77099Y361406D01*
X76965Y361444D01*
X76831Y361486D01*
X76700Y361532D01*
X76569Y361581D01*
X76440Y361634D01*
X76312Y361690D01*
X76186Y361750D01*
X76062Y361813D01*
X75939Y361880D01*
X75819Y361950D01*
X89345Y371476D02*
X89449Y371474D01*
X89554Y371468D01*
X89658Y371459D01*
X89761Y371446D01*
X89864Y371428D01*
X89966Y371408D01*
X90068Y371383D01*
X90168Y371355D01*
X90268Y371323D01*
X90366Y371287D01*
X90463Y371248D01*
X90558Y371206D01*
X90652Y371160D01*
X90744Y371110D01*
X90834Y371058D01*
X90922Y371002D01*
X91008Y370942D01*
X91092Y370880D01*
X91173Y370815D01*
X91252Y370747D01*
X91329Y370675D01*
X91402Y370602D01*
X91474Y370525D01*
X91542Y370446D01*
X91607Y370365D01*
X91669Y370281D01*
X91729Y370195D01*
X91785Y370107D01*
X91837Y370017D01*
X91887Y369925D01*
X91933Y369831D01*
X91975Y369736D01*
X92014Y369639D01*
X92050Y369541D01*
X92082Y369441D01*
X92110Y369341D01*
X92135Y369239D01*
X92155Y369137D01*
X92173Y369034D01*
X92186Y368931D01*
X92195Y368827D01*
X92201Y368722D01*
X92203Y368618D01*
X89345Y371475D02*
X89227Y371473D01*
X89108Y371467D01*
X88990Y371458D01*
X88873Y371445D01*
X88756Y371427D01*
X88639Y371407D01*
X88523Y371382D01*
X88408Y371354D01*
X88295Y371321D01*
X88182Y371286D01*
X88070Y371246D01*
X87960Y371204D01*
X87851Y371157D01*
X87743Y371107D01*
X87638Y371054D01*
X87534Y370997D01*
X87432Y370937D01*
X87332Y370874D01*
X87234Y370807D01*
X87138Y370738D01*
X87045Y370665D01*
X86954Y370589D01*
X86865Y370511D01*
X86779Y370429D01*
X86696Y370345D01*
X86615Y370259D01*
X86538Y370169D01*
X86463Y370078D01*
X86391Y369984D01*
X86322Y369887D01*
X86257Y369789D01*
X86194Y369688D01*
X86135Y369585D01*
X86079Y369481D01*
X86027Y369375D01*
X85978Y369267D01*
X85933Y369158D01*
X85891Y369047D01*
X85853Y368935D01*
X91250Y366396D02*
X91326Y366471D01*
X91401Y366550D01*
X91472Y366631D01*
X91541Y366715D01*
X91606Y366801D01*
X91668Y366889D01*
X91728Y366979D01*
X91784Y367071D01*
X91837Y367166D01*
X91886Y367262D01*
X91932Y367360D01*
X91975Y367459D01*
X92014Y367560D01*
X92049Y367662D01*
X92081Y367765D01*
X92109Y367869D01*
X92134Y367974D01*
X92155Y368081D01*
X92172Y368187D01*
X92185Y368294D01*
X92194Y368402D01*
X92200Y368510D01*
X92202Y368618D01*
X91250Y366395D02*
X85852Y360045D01*
X92202Y360045D01*
M02*
